<svg xmlns="http://www.w3.org/2000/svg" viewBox="0 0 1112.72 180.89"><defs><style>.cls-1{fill:#242c36;}.cls-2{fill:#2b73ff;}</style></defs><title>acuantia-logo</title><g id="Capa_2" data-name="Capa 2"><g id="Capa_1-2" data-name="Capa 1"><path class="cls-1" d="M327.48,131.82q-3.5,20.93-21.71,35t-42.16,14.07q-28.38,0-48.41-18.76t-20-45.11q0-26.08,20.08-44.8t48.35-18.7q23.92,0,42,14T327.48,102H293a29.47,29.47,0,0,0-11.61-13.65,33.3,33.3,0,0,0-18.46-5.23A33.78,33.78,0,0,0,229.09,117,32.72,32.72,0,0,0,239,140.84a32.36,32.36,0,0,0,23.93,10,33,33,0,0,0,18.34-5.17A30.58,30.58,0,0,0,293,131.82Z"/><path class="cls-1" d="M454.74,56.65v121H424.67l-1.92-20.2h-.48a41.48,41.48,0,0,1-15.76,17.14,42,42,0,0,1-22.25,6.31q-23.2,0-37.46-16.42t-14.25-41.31V56.65h34v63.62q0,13.11,7.76,21.71a25,25,0,0,0,19.3,8.6q11.07,0,19.07-8.9t8-22.13V56.65Z"/><path class="cls-1" d="M529.32,180.89q-24.17,0-43.11-18.1T467.26,117q0-27.3,19.07-45.4t43-18.1a53.23,53.23,0,0,1,25.5,6.38q11.91,6.38,16.6,16.71h.72l1.2-20h30.07v121H573.34l-1.2-20h-.72q-4.7,10.57-16.84,16.9a54.21,54.21,0,0,1-25.26,6.31m-18.16-39.81a32.79,32.79,0,0,0,24.06,10,32.36,32.36,0,0,0,23.93-10A33,33,0,0,0,569,117a33.56,33.56,0,0,0-33.79-33.67,33.13,33.13,0,0,0-24.06,9.8,32.21,32.21,0,0,0-10,23.87,32.81,32.81,0,0,0,10,24.06"/><path class="cls-1" d="M625.08,177.64v-121H655l2.05,20h.48a40.51,40.51,0,0,1,16.24-16.83A45.61,45.61,0,0,1,697,53.52q24.18,0,38.91,16.36t14.73,41v66.75h-34V114.38a30.73,30.73,0,0,0-8.23-21.65,26.83,26.83,0,0,0-20.51-8.9q-11.79,0-20.33,9.2A31.31,31.31,0,0,0,659,115.1v62.54Z"/><path class="cls-1" d="M826,152q6.13,0,18.16-3.73V176q-8.18,4.92-23.57,4.93-23.22,0-37.23-14.07t-14-35.24v-48H747.61V56.65h21.77V25.14H803.3V56.65H844V83.59H803.3v45q0,10.59,6,17T826,152"/><path class="cls-1" d="M887.32,33.68a19.94,19.94,0,0,1-14.19,5.77,19.31,19.31,0,0,1-14-5.77,18.81,18.81,0,0,1-5.89-13.95,18.94,18.94,0,0,1,5.89-13.84,19.16,19.16,0,0,1,14-5.89,19.6,19.6,0,0,1,14.19,6,18.84,18.84,0,0,1,0,27.72m-31.09,23h33.92v121H856.23Z"/><path class="cls-1" d="M965,180.89q-24.18,0-43.12-18.1T902.91,117q0-27.3,19.06-45.4t43-18.1a53.23,53.23,0,0,1,25.5,6.38q11.91,6.38,16.6,16.71h.72l1.2-20h30.07v121H1009l-1.2-20h-.72q-4.7,10.57-16.84,16.9A54.21,54.21,0,0,1,965,180.89m-18.16-39.81a32.75,32.75,0,0,0,24.05,10,32.38,32.38,0,0,0,23.94-10,33,33,0,0,0,9.86-24.06,33.56,33.56,0,0,0-33.8-33.67,33.09,33.09,0,0,0-24.05,9.8,32.18,32.18,0,0,0-10,23.87,32.77,32.77,0,0,0,10,24.06"/><path class="cls-1" d="M204.42,177.64l-83-166h-14.8L55.91,113.13c-11.22-1.3-24.26-5.67-41.2-15.65L0,122.45c16.16,9.52,30.12,14.9,42.42,17.66L23.66,177.64H60.58l17.16-36.17a180.17,180.17,0,0,0,21.64-4.84c16.87-4.55,29.44-7.89,49.37,1.58l18.75,39.43ZM93.52,108.2,114,65.07,132.3,103.6c-14.83-1.54-27.28,1.52-38.78,4.6"/><path class="cls-2" d="M1112.72,152.09a28.8,28.8,0,1,1-28.79-28.79,28.79,28.79,0,0,1,28.79,28.79"/></g></g></svg>