<svg xmlns="http://www.w3.org/2000/svg" viewBox="0 0 403.5 96.85"><defs><style>.cls-1{fill:#00afd7;}</style></defs><title>bebbia-logo</title><g id="Capa_2" data-name="Capa 2"><g id="Logotipo"><path class="cls-1" d="M28.26,29.87A34,34,0,0,0,7.33,37.09V1.89A1.67,1.67,0,0,0,5.2.05L1.86.71A2,2,0,0,0,0,2.81V90.55a2.24,2.24,0,0,0,1.6,2.23A71.38,71.38,0,0,0,24,96.85c21.46,0,32.26-13.26,32.26-34.94C56.25,43,46.12,29.87,28.26,29.87ZM41.85,85.42c-3.6,2.76-9.73,4.21-17.32,4.21-5.87,0-12.8-1-17.2-2.89V43a36.83,36.83,0,0,1,19.86-5.91c12.93,0,21.33,8.93,21.33,25.48C48.52,73,45.85,80.43,41.85,85.42ZM99.56,29.86c-19.19,0-30,13.14-30,34.15,0,20,10.4,32.84,29.59,32.84,9.46,0,17.19-3,21.59-6.43a2,2,0,0,0,.53-2.76l-.66-1.45a1.83,1.83,0,0,0-2.67-.92,38.78,38.78,0,0,1-17.86,4.34c-16.39,0-22.66-11-22.79-24.69L120,64.28a1.93,1.93,0,0,0,2.13-1.71,34.41,34.41,0,0,0,1.07-9.19C123.15,37.88,113.55,29.86,99.56,29.86ZM114.89,58,77.57,59c.53-6.84,2.4-13.14,6.26-18,4.13-2.62,9.73-3.94,15.46-3.94,11.33,0,16.13,7,16.13,16.15A20.24,20.24,0,0,1,114.89,58Zm51.57-28.1a34,34,0,0,0-20.93,7.22V1.89A1.67,1.67,0,0,0,143.4.05l-3.33.66a2,2,0,0,0-1.87,2.1V90.55a2.25,2.25,0,0,0,1.6,2.23,71.44,71.44,0,0,0,22.4,4.07c21.46,0,32.25-13.26,32.25-34.94C194.45,43,184.32,29.87,166.46,29.87Zm13.59,55.55c-3.59,2.76-9.72,4.21-17.32,4.21-5.87,0-12.8-1-17.2-2.89V43a36.84,36.84,0,0,1,19.87-5.91c12.92,0,21.32,8.93,21.32,25.48C186.72,73,184.05,80.43,180.05,85.42Zm57.72-55.55a34,34,0,0,0-20.93,7.22V1.89A1.67,1.67,0,0,0,214.71.05l-3.34.66a2,2,0,0,0-1.86,2.1V90.55a2.24,2.24,0,0,0,1.6,2.23,71.32,71.32,0,0,0,22.39,4.07c21.46,0,32.25-13.26,32.25-34.94C265.75,43,255.63,29.87,237.77,29.87Zm13.59,55.55c-3.6,2.76-9.73,4.21-17.33,4.21-5.86,0-12.79-1.06-17.19-2.89V43a36.83,36.83,0,0,1,19.86-5.91C249.63,37.09,258,46,258,62.57,258,73,255.36,80.43,251.36,85.42Zm46.91,4.87a71.86,71.86,0,0,1-8.13-.4,23.75,23.75,0,0,1-1.06-7.49V33.15a1.88,1.88,0,0,0-2-2h-3.33a1.88,1.88,0,0,0-2,2V86.34c0,6.57,3.74,10.51,10,10.51a17.68,17.68,0,0,0,7.07-1.57,2.42,2.42,0,0,0,1.46-2.37v-.66A1.8,1.8,0,0,0,298.27,90.29Zm-8.93-72.9a9.77,9.77,0,0,0,1.87-5.91A8.58,8.58,0,0,0,288.94,6a2.9,2.9,0,0,0-2.53-.65l-3.73.52a2.42,2.42,0,0,0-2.14,1.71,9.5,9.5,0,0,0-.8,3.94c0,4.07,2.14,6.57,5.74,6.57A10.8,10.8,0,0,0,289.34,17.39Zm75.3,72.89a71.08,71.08,0,0,1-8-.39,20.24,20.24,0,0,1-1.07-7.49V51.54c0-15.37-9.86-21.68-23.19-21.68-11.59,0-22.26,5.79-22.26,14.19a8.37,8.37,0,0,0,1.07,4.07,2.56,2.56,0,0,0,2.4,1.18h2.8a1.81,1.81,0,0,0,2-2c.13-3.15.66-5.91.93-8.27,3.2-1.44,6.26-2,11.19-2,12.27,0,17.73,5,17.73,16.68v5.91h-4.8c-23.59,0-37.05,6.3-37.05,19.57,0,11.17,8.4,17.6,20.79,17.6a37.76,37.76,0,0,0,21.6-6.7c1.06,4.2,4.39,6.7,9.46,6.7a18,18,0,0,0,7.06-1.57,2.49,2.49,0,0,0,1.33-2.37v-.66A1.81,1.81,0,0,0,364.64,90.28Zm-16.39-6A45.3,45.3,0,0,1,328,89.63c-8,0-13.86-3.42-13.86-10.77a14.78,14.78,0,0,1,2.27-8c5.86-3.55,16.92-5.26,26.79-5.26h5.06Zm43-11.6A12.11,12.11,0,1,0,403.5,84.71,12.16,12.16,0,0,0,391.22,72.64Zm0,22.58a10.5,10.5,0,1,1,10.49-10.51A10.49,10.49,0,0,1,391.22,95.22Zm5.49-6.35a5.71,5.71,0,0,1-.88-.07,5,5,0,0,1-1-1.42L394,85.75A4.56,4.56,0,0,0,396.15,82c0-2.61-2.22-4.24-6.13-4.24-.84,0-1.83,0-3.13.14a.83.83,0,0,0-.85.9V90.33a.8.8,0,0,0,.88.87h1a.8.8,0,0,0,.88-.87v-3.4h2.74l1.38,2.74a3.14,3.14,0,0,0,2.88,1.87,3.66,3.66,0,0,0,1.24-.2,1,1,0,0,0,.56-1v-.56A.84.84,0,0,0,396.71,88.87Zm-4.79-4.3h-3.1V80.3c.46,0,1-.07,1.52-.07,2,0,2.92.77,2.92,2.09A2.67,2.67,0,0,1,391.92,84.57Z"/></g></g></svg>