<svg xmlns="http://www.w3.org/2000/svg" viewBox="0 0 245.53 83.47"><defs><style>.cls-1{fill:#1d1d1b;}.cls-2{fill:#fff;}.cls-3{fill:#008e39;}</style></defs><title>ips-logo</title><g id="Capa_2" data-name="Capa 2"><g id="Layer_1" data-name="Layer 1"><rect class="cls-1" x="139.68" y="32.71" width="0.76" height="35.49"/><rect class="cls-2" x="76.13" width="50.56" height="83.47"/><path class="cls-1" d="M123.72,41.8H116c-1.27,0-1.52,1.31-.71,2.22l5.88,6.58a13.14,13.14,0,0,1,2,2.9,7.36,7.36,0,0,1,.08,5.77,5.13,5.13,0,0,1-1.32,1.87c-2.3,2-5.15,1.59-7.85,1.59h-7.2v-6h8a1,1,0,0,0,1-.59,1.52,1.52,0,0,0-.39-1.47l-4.94-5.86c-.93-1.1-2.54-2.52-3-3.91a11,11,0,0,1-.42-2.7,5.43,5.43,0,0,1,.1-2,5.53,5.53,0,0,1,3.07-3.61,12.25,12.25,0,0,1,4.52-.87h8.89Z"/><path class="cls-1" d="M88,35.63H99.25c2.31,0,5.43.7,7,3.26,2.39,4,1.17,10.23-2.07,13.35a17.63,17.63,0,0,1-9.23,4.45v6H88Zm6.94,6.06v8.9a15.58,15.58,0,0,0,4.21-2.78A6.06,6.06,0,0,0,101,43.59c-.08-.8-1.48-1.73-2.75-1.78Z"/><rect class="cls-1" x="79.05" y="35.63" width="6.69" height="27.09"/><path class="cls-3" d="M79.11,3H123.7V34.25h-9.39A9.85,9.85,0,0,0,107,37.42a8.85,8.85,0,0,0-7.26-3.17H79.11Z"/><path class="cls-1" d="M79.11,64.07H96.19V57.9c1.07-.3,2.18-.58,3.21-1a14,14,0,0,0,3.12-1.57h3.06v8.7h10.2A12.57,12.57,0,0,0,121,63.4a7.32,7.32,0,0,0,2.69-2.19V80.49H79.11Z"/><rect class="cls-1" y="34.94" width="2.18" height="12.69"/><path class="cls-1" d="M4.48,47.63V38.18H6.35v1A3.12,3.12,0,0,1,8.74,38c1,0,1.65.76,1.65,2v7.64h-2V40.3a.62.62,0,0,0-.7-.68,2.27,2.27,0,0,0-1.27.6v7.41Z"/><path class="cls-1" d="M15.87,40.8c-.14-.76-.49-1.18-1.12-1.18s-.87.26-.87.75c0,1.48,3.7,2.08,3.7,4.89a2.46,2.46,0,0,1-2.76,2.55,2.86,2.86,0,0,1-3-2.64l1.72-.47c.13.79.41,1.49,1.3,1.49a.8.8,0,0,0,.88-.82c0-1.64-3.69-2.25-3.69-4.84A2.52,2.52,0,0,1,14.66,38a2.88,2.88,0,0,1,2.88,2.51Z"/><path class="cls-1" d="M18.35,39.79V38.18h1.09V35.63h2v2.55h1.32v1.61H21.41v5.45c0,.5.21.78.67.78h.65V47.7a3.45,3.45,0,0,1-1,.11c-1.47,0-2.3-.69-2.3-2.13V39.79Z"/><path class="cls-1" d="M23.8,41h0A2.9,2.9,0,0,1,27,38c1.83,0,2.87.85,2.87,2.57v6.06a7,7,0,0,0,.12,1H28.07c0-.26-.09-.51-.11-.73a3.36,3.36,0,0,1-2.3.91,1.92,1.92,0,0,1-2-2.13c0-2.07,1.37-3.21,4.2-4.29v-.56c0-.79-.32-1.21-1-1.21-.89,0-1.09.53-1.12,1.33Zm4.06,1.89c-1.79,1-2.23,1.67-2.23,2.49,0,.62.31.86.91.86a1.72,1.72,0,0,0,1.32-.88Z"/><rect class="cls-1" x="31.83" y="34.94" width="1.97" height="12.69"/><path class="cls-1" d="M35.5,41h0a2.9,2.9,0,0,1,3.17-3c1.83,0,2.86.85,2.86,2.57v6.06a5.83,5.83,0,0,0,.13,1H39.78c0-.26-.09-.51-.11-.73a3.38,3.38,0,0,1-2.3.91,1.92,1.92,0,0,1-2-2.13c0-2.07,1.38-3.21,4.21-4.29v-.56c0-.79-.32-1.21-1-1.21-.9,0-1.09.53-1.13,1.33Zm4.07,1.89c-1.8,1-2.24,1.67-2.24,2.49,0,.62.32.86.92.86a1.74,1.74,0,0,0,1.32-.88Z"/><path class="cls-1" d="M47.44,47.63V40.3a.63.63,0,0,0-.69-.68,2.27,2.27,0,0,0-1.26.6v7.41h-2V38.18h1.86v1c.83-.71,1.25-1.13,2.18-1.13a1.64,1.64,0,0,1,1.72,1.13A2.9,2.9,0,0,1,51.48,38a1.74,1.74,0,0,1,1.85,2v7.64h-2V40.3a.64.64,0,0,0-.7-.68,2.16,2.16,0,0,0-1.25.6v7.41Z"/><path class="cls-1" d="M55.14,41.52h0c0-2.08.81-3.52,3.06-3.52s3,1.44,3,3.52v2.77c0,2.08-.8,3.52-3,3.52s-3.06-1.44-3.06-3.52Zm4.15-.35c0-1.09-.39-1.55-1.09-1.55s-1.09.46-1.09,1.55v3.48c0,1.09.38,1.54,1.09,1.54s1.09-.45,1.09-1.54Z"/><path class="cls-1" d="M66.63,40.8c-.14-.76-.49-1.18-1.12-1.18s-.86.26-.86.75c0,1.48,3.69,2.08,3.69,4.89a2.46,2.46,0,0,1-2.76,2.55,2.86,2.86,0,0,1-3-2.64l1.72-.47c.13.79.41,1.49,1.31,1.49a.8.8,0,0,0,.88-.82c0-1.64-3.7-2.25-3.7-4.84A2.52,2.52,0,0,1,65.42,38a2.88,2.88,0,0,1,2.88,2.51Z"/><path class="cls-1" d="M11.93,56.49v-.24c0-1.09-.38-1.55-1.08-1.55s-1.09.46-1.09,1.55v3.48c0,1.09.38,1.54,1.09,1.54s1.08-.45,1.08-1.54v-.6h2v.24c0,2.08-.8,3.52-3.05,3.52s-3.06-1.44-3.06-3.52V56.6c0-2.08.81-3.52,3.06-3.52s3,1.39,3.05,3.41Z"/><path class="cls-1" d="M15.59,56.6h0c0-2.08.81-3.52,3.06-3.52s3.06,1.44,3.06,3.52v2.77c0,2.08-.81,3.52-3.06,3.52s-3.06-1.44-3.06-3.52Zm4.15-.35c0-1.09-.39-1.55-1.09-1.55s-1.09.46-1.09,1.55v3.48c0,1.09.39,1.54,1.09,1.54s1.09-.45,1.09-1.54Z"/><path class="cls-1" d="M23.5,62.71V53.26h1.86v1a3.15,3.15,0,0,1,2.39-1.13c1,0,1.66.76,1.66,2v7.64h-2V55.39a.63.63,0,0,0-.71-.69,2.27,2.27,0,0,0-1.26.6v7.41Z"/><path class="cls-1" d="M31.69,54.88H30.53V53.26h1.16V52.08a2,2,0,0,1,2.2-2.23h1v1.62h-.56c-.48,0-.65.17-.65.63v1.16h1.12v1.62H33.66v7.84h-2Z"/><path class="cls-1" d="M36.21,50h2v1.8h-2Zm0,3.24h2v9.45h-2Z"/><path class="cls-1" d="M39.88,56h0a2.9,2.9,0,0,1,3.16-3c1.83,0,2.87.85,2.87,2.57v6.06a7,7,0,0,0,.12,1H44.15c0-.26-.09-.5-.1-.73a3.4,3.4,0,0,1-2.31.91,1.92,1.92,0,0,1-2-2.13c0-2.07,1.37-3.21,4.2-4.28v-.57c0-.79-.31-1.21-1-1.21-.89,0-1.08.53-1.12,1.34Zm4.06,1.88c-1.79,1-2.23,1.67-2.23,2.49,0,.62.32.86.91.86a1.72,1.72,0,0,0,1.32-.87Z"/><path class="cls-1" d="M47.9,62.71V53.26h1.86v1a3.15,3.15,0,0,1,2.39-1.13c1,0,1.65.76,1.65,2v7.64h-2V55.39a.62.62,0,0,0-.7-.69,2.24,2.24,0,0,0-1.26.6v7.41Z"/><polygon class="cls-1" points="55.52 54.88 55.52 53.26 61.06 53.26 61.06 54.88 57.39 61.1 61.06 61.1 61.06 62.72 55.28 62.72 55.28 61.1 58.88 54.88 55.52 54.88"/><path class="cls-1" d="M62.33,56h0a2.89,2.89,0,0,1,3.16-3c1.83,0,2.87.85,2.87,2.57v6.06a7,7,0,0,0,.12,1H66.6c0-.26-.09-.5-.11-.73a3.36,3.36,0,0,1-2.3.91,1.91,1.91,0,0,1-2-2.13c0-2.07,1.37-3.21,4.2-4.28v-.57c0-.79-.32-1.21-1-1.21-.9,0-1.09.53-1.12,1.34Zm4.06,1.88c-1.8,1-2.23,1.67-2.23,2.49,0,.62.31.86.91.86a1.75,1.75,0,0,0,1.32-.87Z"/><path class="cls-1" d="M10.12,72.17h0l-.71-2.23h0l-.7,2.23Zm-1-2.55h.6l1.34,4.26h-.41l-.43-1.39H8.6l-.44,1.39H7.75Z"/><path class="cls-1" d="M14.21,70.86a1.11,1.11,0,0,0-1.09-1c-.75,0-1.24.72-1.24,1.87,0,.91.26,1.87,1.36,1.87a1,1,0,0,0,1-1V72.2H13.16v-.32h1.47v2h-.34v-.42h0a1.28,1.28,0,0,1-1.16.47c-.95,0-1.63-.77-1.63-2.18s.74-2.19,1.65-2.19a1.42,1.42,0,0,1,1.44,1.23Z"/><path class="cls-1" d="M16.12,69.62v2.9c0,.82.39,1.1,1.15,1.1s1.15-.28,1.15-1.1v-2.9h.39v2.87c0,1-.51,1.44-1.54,1.44s-1.54-.48-1.54-1.44V69.62Z"/><path class="cls-1" d="M21.91,72.17h0l-.71-2.23h0l-.7,2.23Zm-1-2.55h.6l1.34,4.26h-.41L22,72.49H20.39L20,73.88h-.41Z"/><polygon class="cls-1" points="23.56 73.35 23.56 73.88 23.81 73.88 23.47 74.76 23.7 74.76 24.07 73.88 24.07 73.35 23.56 73.35"/><path class="cls-1" d="M29.28,70.86a1.12,1.12,0,0,0-1.1-1c-.75,0-1.23.72-1.23,1.87,0,.91.26,1.87,1.36,1.87a1,1,0,0,0,1-1V72.2H28.23v-.32h1.46v2h-.33v-.42h0a1.28,1.28,0,0,1-1.16.47c-1,0-1.63-.77-1.63-2.18s.73-2.19,1.65-2.19a1.42,1.42,0,0,1,1.44,1.23Z"/><path class="cls-1" d="M32.72,72.17h0L32,69.94h0l-.7,2.23Zm-1-2.55h.6l1.34,4.26h-.41l-.43-1.39H31.2l-.43,1.39h-.42Z"/><path class="cls-1" d="M34.36,72.69a1.1,1.1,0,0,0,1.21.93.79.79,0,0,0,.85-.85c0-1.15-2.31-.7-2.31-2.11a1.09,1.09,0,0,1,1.23-1.1,1.34,1.34,0,0,1,1.36,1l-.33.1a1.05,1.05,0,0,0-1-.8.76.76,0,0,0-.84.78c0,.29.09.5.87.79,1.2.45,1.44.75,1.44,1.36a1.17,1.17,0,0,1-1.3,1.12A1.4,1.4,0,0,1,34,72.8Z"/><path class="cls-1" d="M40,73.3h0l.85-2.49h.38L40.13,74.1c-.21.6-.43.86-1,.86a1.31,1.31,0,0,1-.33,0v-.29a3.09,3.09,0,0,0,.35,0c.25,0,.52-.22.69-.85l-1.07-3h.39Z"/><path class="cls-1" d="M44,73.56h.82c.95,0,1.45-.66,1.45-1.81s-.5-1.81-1.45-1.81H44Zm-.39-3.94h1.2c1.32,0,1.85,1,1.85,2.13s-.53,2.13-1.85,2.13h-1.2Z"/><polygon class="cls-1" points="47.5 73.88 47.5 69.62 49.93 69.62 49.93 69.94 47.89 69.94 47.89 71.51 49.36 71.51 49.36 71.83 47.89 71.83 47.89 73.56 50.04 73.56 50.04 73.88 47.5 73.88"/><path class="cls-1" d="M50.74,72.69a1.1,1.1,0,0,0,1.21.93.79.79,0,0,0,.85-.85c0-1.15-2.3-.7-2.3-2.11a1.09,1.09,0,0,1,1.22-1.1,1.34,1.34,0,0,1,1.36,1l-.33.1a1.05,1.05,0,0,0-1-.8.76.76,0,0,0-.84.78c0,.29.09.5.87.79,1.2.45,1.44.75,1.44,1.36a1.17,1.17,0,0,1-1.3,1.12,1.4,1.4,0,0,1-1.51-1.13Z"/><path class="cls-1" d="M56,72.17h0l-.7-2.23h0l-.7,2.23Zm-1-2.55h.59l1.34,4.26H56.5l-.43-1.39H54.46L54,73.88h-.42Z"/><path class="cls-1" d="M60.07,70.86a1.11,1.11,0,0,0-1.09-1c-.75,0-1.24.72-1.24,1.87,0,.91.27,1.87,1.36,1.87a1,1,0,0,0,1-1V72.2H59v-.32h1.47v2h-.34v-.42h0a1.27,1.27,0,0,1-1.16.47c-.95,0-1.63-.77-1.63-2.18s.74-2.19,1.65-2.19a1.42,1.42,0,0,1,1.44,1.23Z"/><path class="cls-1" d="M63.75,68.83h0v.55h-.39v-.55Zm-.92,0h0v.55h-.39v-.55Zm-.85.79v2.9c0,.82.39,1.1,1.15,1.1s1.15-.28,1.15-1.1v-2.9h.39v2.87c0,1-.51,1.44-1.54,1.44s-1.54-.48-1.54-1.44V69.62Z"/><polygon class="cls-1" points="65.84 73.88 65.84 69.62 68.27 69.62 68.27 69.94 66.23 69.94 66.23 71.51 67.7 71.51 67.7 71.83 66.23 71.83 66.23 73.56 68.39 73.56 68.39 73.88 65.84 73.88"/><path class="cls-1" d="M158.32,39.37a.18.18,0,0,1-.19.19h-4v3.32h3.39a.19.19,0,0,1,.2.19v.3a.19.19,0,0,1-.2.2H154.1v3.32h4.25a.18.18,0,0,1,.19.2v.3a.17.17,0,0,1-.19.19h-4.81a.18.18,0,0,1-.2-.19V39.07a.19.19,0,0,1,.2-.2h4.59a.18.18,0,0,1,.19.2Z"/><path class="cls-1" d="M161.55,41.8a3.86,3.86,0,0,1,2.1-.72,2.2,2.2,0,0,1,1.9.8,4.17,4.17,0,0,1,2.28-.8,2,2,0,0,1,2.23,2.15v3.05a2.19,2.19,0,0,0,.11.75c.23,0,.49,0,.79,0a.18.18,0,0,1,.19.2v.06a.23.23,0,0,1-.14.24,1.64,1.64,0,0,1-.69.15.92.92,0,0,1-1-1V43.49a1.47,1.47,0,0,0-1.63-1.69,3.91,3.91,0,0,0-1.9.58,2.39,2.39,0,0,1,.11.78v4.23a.18.18,0,0,1-.2.19h-.32a.18.18,0,0,1-.2-.19v-4c0-1.08-.49-1.56-1.7-1.56a4.14,4.14,0,0,0-1.85.52,5.88,5.88,0,0,1,.07.84v4.23a.18.18,0,0,1-.2.19h-.32a.18.18,0,0,1-.2-.19v-4a2.22,2.22,0,0,0-.52-1.69.19.19,0,0,1,0-.28l.25-.2a.19.19,0,0,1,.26,0A1.48,1.48,0,0,1,161.55,41.8Z"/><path class="cls-1" d="M173.56,41.8a4,4,0,0,1,2.2-.72c1.69,0,2.74,1.28,2.74,3.2,0,2.16-1,3.43-3,3.43a5,5,0,0,1-1.77-.31v2.85a.18.18,0,0,1-.19.19h-.33a.17.17,0,0,1-.19-.19v-6.9a2.26,2.26,0,0,0-.52-1.69.18.18,0,0,1,0-.28l.25-.2a.19.19,0,0,1,.26,0A1.48,1.48,0,0,1,173.56,41.8Zm.12.52a8.21,8.21,0,0,1,.06.84v3.57a5.71,5.71,0,0,0,1.82.27,2.71,2.71,0,0,0,1.53-.39,3.76,3.76,0,0,0,.66-2.33c0-1.64-.85-2.48-2.12-2.48A4.19,4.19,0,0,0,173.68,42.32Z"/><path class="cls-1" d="M181.33,47.58H181a.18.18,0,0,1-.2-.19v-4a2.22,2.22,0,0,0-.52-1.69.17.17,0,0,1,0-.28l.25-.2c.09-.07.15-.1.2-.06a1.63,1.63,0,0,1,.68,1.1c.81-.68,1.36-1.14,2-1.14a1.1,1.1,0,0,1,.57.17.22.22,0,0,1,.08.25l-.06.33a.21.21,0,0,1-.22.16h-1a9.09,9.09,0,0,0-1.33.81c0,.1,0,.22,0,.34v4.25A.18.18,0,0,1,181.33,47.58Z"/><path class="cls-1" d="M185.21,44.46c0-2.08,1-3.38,2.92-3.38a2.13,2.13,0,0,1,2.3,2.33,3.5,3.5,0,0,1-.1.91.19.19,0,0,1-.21.17l-4.16.07c0,1.35.62,2.44,2.22,2.44a3.74,3.74,0,0,0,1.75-.43.18.18,0,0,1,.26.09l.06.14a.22.22,0,0,1-.05.28,3.48,3.48,0,0,1-2.11.63C186.22,47.71,185.21,46.44,185.21,44.46ZM186,44l3.64-.1a2,2,0,0,0,.05-.47,1.44,1.44,0,0,0-1.57-1.6,2.83,2.83,0,0,0-1.51.39A3.2,3.2,0,0,0,186,44Z"/><path class="cls-1" d="M196.39,41.5a.27.27,0,0,1,.13.22,5.74,5.74,0,0,1-.08,1.12.19.19,0,0,1-.21.17H196a.2.2,0,0,1-.21-.2,3.86,3.86,0,0,0-.08-.84,3.39,3.39,0,0,0-1.18-.17c-.92,0-1.59.36-1.59,1.1,0,1.59,3.76.94,3.76,3.09,0,1.14-1.17,1.72-2.35,1.72a3.93,3.93,0,0,1-2.17-.63.17.17,0,0,1-.05-.26l.1-.21a.17.17,0,0,1,.26-.08,4,4,0,0,0,1.94.47c.93,0,1.52-.34,1.52-1,0-1.58-3.76-.89-3.76-3.1,0-1.06,1-1.84,2.35-1.84A3.62,3.62,0,0,1,196.39,41.5Z"/><path class="cls-1" d="M203.43,47.71a.86.86,0,0,1-.92-.66,3.64,3.64,0,0,1-2.11.66c-1.21,0-2-.63-2-1.74,0-1.31,1.31-1.93,3.61-1.93h.47v-.59c0-1.16-.54-1.65-1.73-1.65a2.45,2.45,0,0,0-1.09.19,8.22,8.22,0,0,0-.09.82.18.18,0,0,1-.2.2h-.27a.26.26,0,0,1-.24-.12.91.91,0,0,1-.1-.4c0-.83,1-1.41,2.17-1.41a2,2,0,0,1,2.26,2.15v3.05a2,2,0,0,0,.11.75q.33,0,.78,0a.18.18,0,0,1,.19.2v.06a.25.25,0,0,1-.13.24A1.68,1.68,0,0,1,203.43,47.71Zm-3-.71a4.4,4.4,0,0,0,2-.53V44.62H202a5.66,5.66,0,0,0-2.61.52,1.49,1.49,0,0,0-.22.79C199.13,46.66,199.7,47,200.48,47Z"/><path class="cls-1" d="M215.6,47.71a.85.85,0,0,1-.91-.66,3,3,0,0,1-2,.66c-1.72,0-2.81-1.24-2.81-3.15,0-2.23,1.1-3.48,3-3.48a4.28,4.28,0,0,1,1.72.34v-3a.19.19,0,0,1,.18-.21l.33-.07a.16.16,0,0,1,.2.18v8a2.61,2.61,0,0,0,.09.75c.24,0,.5,0,.8,0a.18.18,0,0,1,.19.2v.06a.25.25,0,0,1-.13.24A1.77,1.77,0,0,1,215.6,47.71ZM212.7,47a3.59,3.59,0,0,0,1.94-.57V42.11a4.71,4.71,0,0,0-1.72-.31,2.78,2.78,0,0,0-1.62.42,3.83,3.83,0,0,0-.68,2.32C210.62,46.17,211.49,47,212.7,47Z"/><path class="cls-1" d="M217.65,44.46c0-2.08,1.06-3.38,2.93-3.38a2.13,2.13,0,0,1,2.3,2.33,3.5,3.5,0,0,1-.1.91.19.19,0,0,1-.21.17l-4.16.07c0,1.35.62,2.44,2.22,2.44a3.7,3.7,0,0,0,1.74-.43.17.17,0,0,1,.26.09l.07.14a.22.22,0,0,1,0,.28,3.5,3.5,0,0,1-2.11.63C218.67,47.71,217.65,46.44,217.65,44.46Zm.78-.49,3.64-.1a2,2,0,0,0,.06-.47,1.45,1.45,0,0,0-1.58-1.6,2.85,2.85,0,0,0-1.51.39A3.36,3.36,0,0,0,218.43,44Z"/><path class="cls-1" d="M159.4,56.12a1.84,1.84,0,0,1-.19.82.25.25,0,0,1-.24.13h-.19a.18.18,0,0,1-.2-.19,5.7,5.7,0,0,0-.17-1.47,4.52,4.52,0,0,0-1.87-.31,3.72,3.72,0,0,0-2,.56,4.76,4.76,0,0,0-1.18,3.47,3.17,3.17,0,0,0,3.52,3.43,5.3,5.3,0,0,0,2-.38V59.71H157a.17.17,0,0,1-.19-.19v-.3A.18.18,0,0,1,157,59h2.39a.19.19,0,0,1,.2.2v3.16a.26.26,0,0,1-.12.23,5.16,5.16,0,0,1-2.69.7,3.87,3.87,0,0,1-4.22-4.23c0-2.8,1.28-4.74,4.13-4.74C158.23,54.34,159.4,55,159.4,56.12Z"/><path class="cls-1" d="M162.59,63.18h-.33a.17.17,0,0,1-.19-.19V59a2.26,2.26,0,0,0-.52-1.69.18.18,0,0,1,0-.28l.25-.21c.09-.06.16-.09.21-.05a1.63,1.63,0,0,1,.67,1.09c.81-.67,1.37-1.13,2-1.13a1.1,1.1,0,0,1,.57.17.24.24,0,0,1,.08.25l-.07.33a.19.19,0,0,1-.22.16h-1a8.38,8.38,0,0,0-1.34.81c0,.1,0,.22,0,.34V63A.18.18,0,0,1,162.59,63.18Z"/><path class="cls-1" d="M167.6,61c0,1.23.55,1.63,1.68,1.63a3.89,3.89,0,0,0,1.94-.51V57a.19.19,0,0,1,.19-.2h.33a.18.18,0,0,1,.19.2v4.87a2,2,0,0,0,.11.75c.22,0,.48,0,.79,0a.18.18,0,0,1,.2.2v.06a.24.24,0,0,1-.15.24,1.64,1.64,0,0,1-.69.15.86.86,0,0,1-.92-.65,3.74,3.74,0,0,1-2.13.65,2,2,0,0,1-2.25-2.14V57a.19.19,0,0,1,.2-.2h.32a.18.18,0,0,1,.19.2Z"/><path class="cls-1" d="M175.43,57.4a4,4,0,0,1,2.2-.72c1.69,0,2.74,1.28,2.74,3.2,0,2.16-1,3.43-3,3.43a5,5,0,0,1-1.77-.31v2.85a.18.18,0,0,1-.19.19h-.33a.18.18,0,0,1-.19-.19V59a2.26,2.26,0,0,0-.52-1.69.18.18,0,0,1,0-.28l.25-.21a.2.2,0,0,1,.26,0A1.48,1.48,0,0,1,175.43,57.4Zm.12.52a8.21,8.21,0,0,1,.06.84v3.57a5.71,5.71,0,0,0,1.82.27,2.77,2.77,0,0,0,1.54-.39,3.82,3.82,0,0,0,.65-2.33c0-1.64-.85-2.48-2.12-2.48A4.19,4.19,0,0,0,175.55,57.92Z"/><path class="cls-1" d="M187.86,60c0,2.1-1.05,3.34-2.93,3.34S182,62,182,59.89s1-3.21,2.9-3.21S187.86,58,187.86,60Zm-4.43-2.18a3.5,3.5,0,0,0-.64,2.17c0,1.44.6,2.64,2.21,2.64a2.91,2.91,0,0,0,1.47-.37A3.36,3.36,0,0,0,187.1,60c0-1.44-.59-2.64-2.19-2.64A2.72,2.72,0,0,0,183.43,57.79Z"/><path class="cls-1" d="M200.49,63.31a1.54,1.54,0,0,1-1.4-.93l-1.61-2.69h-1.93V63a.17.17,0,0,1-.19.19H195a.18.18,0,0,1-.2-.19V54.66a.19.19,0,0,1,.18-.21,12.42,12.42,0,0,1,1.72-.11c2.14,0,3.17,1,3.17,2.6a3,3,0,0,1-1.59,2.58l1.3,2.23a2.49,2.49,0,0,0,.76.81c.19,0,.48,0,.71,0a.18.18,0,0,1,.2.19V63a.25.25,0,0,1-.14.24A1.72,1.72,0,0,1,200.49,63.31Zm-4.94-8.21V59h2.34a2.23,2.23,0,0,0,1.19-2c0-1.34-.81-2-2.34-2C196.33,55,196,55.06,195.55,55.1Z"/><path class="cls-1" d="M208.11,60c0,2.1-1.05,3.34-2.92,3.34s-2.9-1.32-2.9-3.42,1-3.21,2.9-3.21S208.11,58,208.11,60Zm-4.43-2.18A3.5,3.5,0,0,0,203,60c0,1.44.6,2.64,2.21,2.64a2.91,2.91,0,0,0,1.47-.37,3.36,3.36,0,0,0,.64-2.19c0-1.44-.6-2.64-2.2-2.64A2.75,2.75,0,0,0,203.68,57.79Z"/><path class="cls-1" d="M212.19,63.31c-1.05,0-1.85-.55-1.85-2.05V57.59h-1a.18.18,0,0,1-.2-.19v-.14a.19.19,0,0,1,.18-.21l1-.11v-.13l.11-1.26a.23.23,0,0,1,.18-.2l.21,0a.16.16,0,0,1,.21.17v1.46h2.33a.19.19,0,0,1,.19.2v.26a.18.18,0,0,1-.19.19h-2.33V61.1c0,1.12.49,1.5,1.27,1.5a2,2,0,0,0,1.21-.39.19.19,0,0,1,.28,0l.1.14a.19.19,0,0,1,0,.28A2.37,2.37,0,0,1,212.19,63.31Z"/><path class="cls-1" d="M220.9,60c0,2.1-1.05,3.34-2.92,3.34s-2.9-1.32-2.9-3.42,1-3.21,2.9-3.21S220.9,58,220.9,60Zm-4.43-2.18a3.5,3.5,0,0,0-.64,2.17c0,1.44.6,2.64,2.21,2.64a2.88,2.88,0,0,0,1.47-.37,3.36,3.36,0,0,0,.64-2.19c0-1.44-.6-2.64-2.2-2.64A2.75,2.75,0,0,0,216.47,57.79Z"/><path class="cls-1" d="M223.75,57.4a4,4,0,0,1,2.2-.72c1.69,0,2.74,1.28,2.74,3.2,0,2.16-1,3.43-3,3.43a5,5,0,0,1-1.77-.31v2.85a.18.18,0,0,1-.19.19h-.33a.18.18,0,0,1-.19-.19V59a2.26,2.26,0,0,0-.52-1.69.18.18,0,0,1,0-.28l.25-.21a.2.2,0,0,1,.26,0A1.48,1.48,0,0,1,223.75,57.4Zm.12.52a8.21,8.21,0,0,1,.06.84v3.57a5.71,5.71,0,0,0,1.82.27,2.77,2.77,0,0,0,1.54-.39,3.82,3.82,0,0,0,.65-2.33c0-1.64-.85-2.48-2.12-2.48A4.19,4.19,0,0,0,223.87,57.92Z"/><path class="cls-1" d="M231.5,61.88a2.54,2.54,0,0,0,.1.75c.22,0,.48,0,.8,0a.18.18,0,0,1,.19.2v.06a.24.24,0,0,1-.14.24,1.68,1.68,0,0,1-.69.15.93.93,0,0,1-1-1V54a.2.2,0,0,1,.19-.21l.32-.07a.17.17,0,0,1,.21.18Z"/><path class="cls-1" d="M238.87,63.31a.86.86,0,0,1-.92-.66,3.64,3.64,0,0,1-2.11.66c-1.21,0-2-.63-2-1.74,0-1.31,1.32-1.93,3.62-1.93h.46v-.59c0-1.16-.53-1.65-1.72-1.65a2.53,2.53,0,0,0-1.1.19c0,.24-.07.51-.09.82a.18.18,0,0,1-.19.2h-.27a.25.25,0,0,1-.24-.12.91.91,0,0,1-.1-.4c0-.83,1-1.41,2.17-1.41a2,2,0,0,1,2.26,2.15v3.05a2.24,2.24,0,0,0,.1.75c.23,0,.48,0,.78,0a.18.18,0,0,1,.2.2v.06a.25.25,0,0,1-.13.24A1.72,1.72,0,0,1,238.87,63.31Zm-3-.71a4.32,4.32,0,0,0,2-.53V60.22h-.49a5.66,5.66,0,0,0-2.61.52,1.4,1.4,0,0,0-.22.79C234.57,62.26,235.14,62.6,235.92,62.6Z"/><path class="cls-1" d="M245.2,57.1a.25.25,0,0,1,.13.22,5.05,5.05,0,0,1-.08,1.12.19.19,0,0,1-.21.17h-.22a.19.19,0,0,1-.2-.2,4.6,4.6,0,0,0-.08-.84,3.45,3.45,0,0,0-1.19-.17c-.92,0-1.58.36-1.58,1.1,0,1.59,3.76.94,3.76,3.09,0,1.14-1.17,1.72-2.36,1.72a4,4,0,0,1-2.17-.63.18.18,0,0,1-.05-.26l.1-.21a.17.17,0,0,1,.26-.08,4,4,0,0,0,1.94.47c.94,0,1.52-.34,1.52-1,0-1.58-3.76-.89-3.76-3.1,0-1.06,1-1.84,2.36-1.84A3.61,3.61,0,0,1,245.2,57.1Z"/></g></g></svg>