<svg xmlns="http://www.w3.org/2000/svg" viewBox="0 0 159.03 56.18"><defs><style>.cls-1{fill:#49c0b1;}</style></defs><title>rieggo-logo</title><g id="Capa_2" data-name="Capa 2"><g id="Logotipo"><path class="cls-1" d="M5.16,42.09H3.63a.87.87,0,0,1-.92-.92v-19c0-4-.67-5.88-2.45-8a.81.81,0,0,1,.13-1.29l1.16-1c.43-.3.73-.43,1-.25A7.72,7.72,0,0,1,5.71,16.8c3.8-3.19,6.43-5.33,9.43-5.33a5.22,5.22,0,0,1,2.7.8,1,1,0,0,1,.36,1.16L17.9,15a1,1,0,0,1-1,.8H12.33A38.86,38.86,0,0,0,6,19.56a13.56,13.56,0,0,1,.06,1.59v20A.87.87,0,0,1,5.16,42.09Z"/><path class="cls-1" d="M26,2.9a4.59,4.59,0,0,1-.85,2.75A4.74,4.74,0,0,1,23.4,6C21.75,6,20.77,4.8,20.77,2.9a4.42,4.42,0,0,1,.37-1.84,1.1,1.1,0,0,1,1-.79L23.83,0A1.3,1.3,0,0,1,25,.33,4,4,0,0,1,26,2.9ZM25.05,36a11,11,0,0,0,.5,3.49,32.85,32.85,0,0,0,3.73.18.84.84,0,0,1,.92.92v.31a1.11,1.11,0,0,1-.68,1.1,7.83,7.83,0,0,1-3.24.73c-2.88,0-4.59-1.83-4.59-4.89V13a.87.87,0,0,1,.92-.92h1.53a.86.86,0,0,1,.91.92Z"/><path class="cls-1" d="M31.9,27.39c0-9.79,5-15.92,13.78-15.92,6.43,0,10.84,3.74,10.84,11A16.34,16.34,0,0,1,56,26.72a.9.9,0,0,1-1,.8l-19.6.3c.06,6.37,2.94,11.52,10.48,11.52a17.58,17.58,0,0,0,8.2-2,.84.84,0,0,1,1.23.43l.3.68a1,1,0,0,1-.24,1.28,16.39,16.39,0,0,1-9.92,3C36.68,42.7,31.9,36.7,31.9,27.39Zm3.67-2.32,17.15-.49A9.08,9.08,0,0,0,53,22.37c0-4.28-2.21-7.53-7.41-7.53a13.3,13.3,0,0,0-7.11,1.84A15.39,15.39,0,0,0,35.57,25.07Z"/><path class="cls-1" d="M71.75,56.18c-8,0-11.88-2.94-11.88-6.56a5.79,5.79,0,0,1,.55-2.57,1,1,0,0,1,1.11-.55l1.34.12a.94.94,0,0,1,.92.92c0,1.41.12,2.82.25,4.29a31.53,31.53,0,0,0,8.2,1c3.25,0,6.92-.55,8.45-1.35a6,6,0,0,0,1.84-4.35c0-3.18-2.76-4.41-7.72-4.41H69.24c-3.73,0-6.18-2-6.18-5.26a8.22,8.22,0,0,1,3.06-5.88C62.81,29.78,61,26.48,61,22.13c0-5.76,3.86-10.66,11-10.66a13,13,0,0,1,7,1.78l1.35-2.82-.25-3a.88.88,0,0,1,.8-1l1.34-.31a1,1,0,0,1,1.11.31,3.86,3.86,0,0,1,1,2.82c0,2.69-1.84,4.34-3.25,5.75a11.11,11.11,0,0,1,2.39,7.29c0,5.64-4.23,10.66-11.27,10.66a13.54,13.54,0,0,1-3.61-.43,6.69,6.69,0,0,0-1.9,4.22A5.57,5.57,0,0,0,67.16,39c2.33.24,5.39.31,8.57.31,6.37,0,10.35,2.87,10.35,7.41C86.08,52.07,81.61,56.18,71.75,56.18Zm-5.51-40a11.23,11.23,0,0,0-1.65,6c0,4.47,2.14,7.35,8,7.35a10.71,10.71,0,0,0,5.75-1.41A11.58,11.58,0,0,0,80,22.19c0-4.53-2.27-7.35-8-7.35A12,12,0,0,0,66.24,16.19Z"/><path class="cls-1" d="M98.91,56.18C91,56.18,87,53.24,87,49.62a5.65,5.65,0,0,1,.55-2.57,1,1,0,0,1,1.1-.55l1.35.12a.94.94,0,0,1,.92.92c0,1.41.12,2.82.24,4.29a31.62,31.62,0,0,0,8.21,1c3.25,0,6.92-.55,8.45-1.35a6,6,0,0,0,1.84-4.35c0-3.18-2.76-4.41-7.72-4.41H96.4c-3.74,0-6.18-2-6.18-5.26a8.22,8.22,0,0,1,3.06-5.88c-3.31-1.78-5.09-5.08-5.09-9.43,0-5.76,3.86-10.66,11-10.66a13,13,0,0,1,7,1.78l1.35-2.82-.25-3a.88.88,0,0,1,.8-1l1.34-.31a1,1,0,0,1,1.1.31,3.82,3.82,0,0,1,1,2.82c0,2.69-1.83,4.34-3.24,5.75a11.11,11.11,0,0,1,2.39,7.29c0,5.64-4.23,10.66-11.27,10.66a13.49,13.49,0,0,1-3.61-.43,6.69,6.69,0,0,0-1.9,4.22A5.57,5.57,0,0,0,94.32,39c2.33.24,5.39.31,8.57.31,6.37,0,10.35,2.87,10.35,7.41C113.24,52.07,108.77,56.18,98.91,56.18Zm-5.51-40a11.23,11.23,0,0,0-1.65,6c0,4.47,2.14,7.35,8,7.35a10.76,10.76,0,0,0,5.75-1.41,11.58,11.58,0,0,0,1.66-5.94c0-4.53-2.27-7.35-8-7.35A12,12,0,0,0,93.4,16.19Z"/><path class="cls-1" d="M143.06,27c0,9.86-5,15.73-13.78,15.73s-13.65-6.24-13.65-16.1c0-9.25,4.9-15.13,13.65-15.13S143.06,17.78,143.06,27ZM122.18,16.68c-1.84,2.26-3,5.94-3,10.22,0,6.8,2.82,12.44,10.41,12.44a14.14,14.14,0,0,0,6.92-1.72c2-2.33,3-6.12,3-10.35,0-6.8-2.82-12.43-10.35-12.43A12.87,12.87,0,0,0,122.18,16.68Z"/><path class="cls-1" d="M159,37.22a5.52,5.52,0,1,1-5.51-5.53A5.51,5.51,0,0,1,159,37.22Zm-10.27,0a4.75,4.75,0,1,0,4.76-4.82A4.79,4.79,0,0,0,148.76,37.22Zm6.81,3.08a1.28,1.28,0,0,1-1.18-.8l-.79-1.57h-1.39v2a.23.23,0,0,1-.25.24h-.32a.23.23,0,0,1-.24-.24v-5.5a.22.22,0,0,1,.23-.24c.5,0,.93-.08,1.33-.08,1.67,0,2.55.74,2.55,1.85a2,2,0,0,1-1.11,1.74l.51,1a3,3,0,0,0,.52.77c.16,0,.38,0,.57,0a.22.22,0,0,1,.24.24v.21a.3.3,0,0,1-.16.29A1.24,1.24,0,0,1,155.57,40.3Zm-3.36-5.4v2.27h1.66a1.29,1.29,0,0,0,.79-1.18c0-.73-.55-1.13-1.64-1.13C152.75,34.86,152.48,34.88,152.21,34.9Z"/></g></g></svg>