<svg xmlns="http://www.w3.org/2000/svg" xmlns:xlink="http://www.w3.org/1999/xlink" viewBox="0 0 1870.74 432.38"><defs><style>.cls-1{fill:#9a9665;}.cls-2{fill:#285698;}.cls-3{clip-path:url(#clip-path);}.cls-4{clip-path:url(#clip-path-2);}</style><clipPath id="clip-path"><path class="cls-1" d="M520.27,31.78s14.46,1.11,26.69-8.15c0,0-17.05-8.16-19.65-12.23,0,0,1.12,10.37-7,20.38"/></clipPath><clipPath id="clip-path-2"><path class="cls-1" d="M597.36,23.63c12.23,9.26,26.69,8.15,26.69,8.15-8.15-10-7-20.38-7-20.38-2.59,4.07-19.65,12.23-19.65,12.23"/></clipPath></defs><title>senorial</title><g id="Capa_2" data-name="Capa 2"><g id="Layer_1" data-name="Layer 1"><path class="cls-2" d="M116.82,131.93a16.29,16.29,0,0,1-4,4.59A9,9,0,0,1,107.4,138a13.23,13.23,0,0,1-6.3-1.84q-3.37-1.84-7.63-4.14a63,63,0,0,0-9.74-4.13,38.89,38.89,0,0,0-12.47-1.85q-12.09,0-18,5.16t-5.91,13.93a12.82,12.82,0,0,0,3.56,9.29,30.85,30.85,0,0,0,9.35,6.36,99.9,99.9,0,0,0,13.23,4.9q7.45,2.24,15.21,5a136.4,136.4,0,0,1,15.22,6.42,50.85,50.85,0,0,1,13.23,9.42,44.22,44.22,0,0,1,9.35,13.93q3.56,8.21,3.56,19.79a64.67,64.67,0,0,1-4.45,24.05,56.33,56.33,0,0,1-12.92,19.53,59.8,59.8,0,0,1-20.87,13.11,78.08,78.08,0,0,1-28.19,4.77A90.18,90.18,0,0,1,46,279.93a103.36,103.36,0,0,1-17.37-5,100.33,100.33,0,0,1-15.78-7.7A66.94,66.94,0,0,1,0,257.28l12.72-20.11a10.4,10.4,0,0,1,4-3.68,11.11,11.11,0,0,1,5.47-1.4,14.49,14.49,0,0,1,7.7,2.41q3.89,2.42,8.78,5.34a70.73,70.73,0,0,0,11.26,5.35,42.28,42.28,0,0,0,15,2.42q11.7,0,18.2-5.16t6.48-16.35q0-6.49-3.56-10.56a27.65,27.65,0,0,0-9.35-6.75,85.58,85.58,0,0,0-13.17-4.7q-7.38-2-15.15-4.52a111.44,111.44,0,0,1-15.14-6.11A47.52,47.52,0,0,1,20,183.92a44.62,44.62,0,0,1-9.35-14.77q-3.55-8.84-3.56-21.82A51.81,51.81,0,0,1,11.33,127a52.53,52.53,0,0,1,12.34-17.69,60.66,60.66,0,0,1,20-12.4q11.82-4.65,27.1-4.64a101.83,101.83,0,0,1,16.61,1.33,88,88,0,0,1,15.33,3.94,84,84,0,0,1,13.56,6.24A62.68,62.68,0,0,1,127.51,112Z"/><path class="cls-2" d="M270.79,94.27v33.09h-76.1v43.26H253v31.81H194.69v44.16h76.1v33.09H151.43V94.27Z"/><path class="cls-2" d="M322.58,94.52a12.15,12.15,0,0,1,3.43,1,11.6,11.6,0,0,1,2.93,2,33.52,33.52,0,0,1,3.18,3.44l88.06,111.34q-.51-5.34-.77-10.37t-.25-9.48V94.27h37.92V279.68H434.69a20.57,20.57,0,0,1-8.4-1.53,18,18,0,0,1-6.62-5.6L332.25,162.09c.25,3.23.47,6.39.63,9.49s.26,6,.26,8.71v99.39H295.22V94.27h22.65A38.64,38.64,0,0,1,322.58,94.52ZM393,59.66a7.26,7.26,0,0,0,4.51-1.4c1.24-.93,1.85-2.63,1.85-5.1h21.38a41.63,41.63,0,0,1-1.84,12.73,29.55,29.55,0,0,1-5.29,9.87,23,23,0,0,1-8.39,6.36A27.23,27.23,0,0,1,394,84.35a37.56,37.56,0,0,1-9.22-1.15,86.44,86.44,0,0,1-8.53-2.61q-4-1.47-7.31-2.61a18.07,18.07,0,0,0-5.73-1.14,6.2,6.2,0,0,0-4.39,1.59c-1.14,1.06-1.72,2.78-1.72,5.15H335.43a40.06,40.06,0,0,1,1.91-12.72A30.19,30.19,0,0,1,342.68,61a23.67,23.67,0,0,1,8.41-6.42,26,26,0,0,1,11.06-2.29,37.58,37.58,0,0,1,9.23,1.14c3,.77,5.85,1.61,8.52,2.55l7.32,2.54A18.06,18.06,0,0,0,393,59.66Z"/><path class="cls-2" d="M734.23,211.09v68.59h-43V94.27h60.32q20.12,0,34.3,4.14T809,109.92a43.53,43.53,0,0,1,13,17.44,57.8,57.8,0,0,1,4.07,21.88,58.75,58.75,0,0,1-2.42,17,51.62,51.62,0,0,1-7.2,14.83,55.5,55.5,0,0,1-11.69,12.15,62.3,62.3,0,0,1-16,8.78,40.24,40.24,0,0,1,8.07,5.35,31.82,31.82,0,0,1,6.57,7.76l39.45,64.52H804q-10.82,0-15.53-8.15l-30.8-53.82a12.83,12.83,0,0,0-4.76-5.09,15.84,15.84,0,0,0-7.7-1.53Zm0-29.65h17.31a44.39,44.39,0,0,0,15-2.23A26.88,26.88,0,0,0,776.6,173a23.51,23.51,0,0,0,5.74-9.23,35.63,35.63,0,0,0,1.78-11.39q0-12.21-8-19.08t-24.63-6.88H734.23Z"/><path class="cls-2" d="M907.55,279.68H864.29V94.27h43.26Z"/><path class="cls-2" d="M1114.45,279.68h-33.33a15.41,15.41,0,0,1-9.23-2.61,13.39,13.39,0,0,1-5-6.68l-10.95-32.32h-70.5l-10.95,32.32a14.73,14.73,0,0,1-14,9.29h-33.6L998.65,94.27h44ZM995.34,208.79H1046l-17-50.77q-1.65-4.83-3.88-11.39c-1.49-4.36-2.94-9.09-4.39-14.18q-2,7.76-4.19,14.37c-1.45,4.42-2.8,8.23-4.08,11.46Z"/><path class="cls-2" d="M1172.48,245.32h68.71v34.36H1129.48V94.27h43Z"/><path class="cls-1" d="M513.36,80.76C531,70.55,551,65.32,573.43,65.32c23.68,0,44.63,5.77,62.94,17.11h1.15l26-68.81h-.61a49.89,49.89,0,0,1-44.54,27.47,49.93,49.93,0,0,1-44.57-27.47h-.69a49.89,49.89,0,0,1-44.56,27.47A49.9,49.9,0,0,1,484,13.62h-.47l26,68.76C510.79,81.77,512.11,81.34,513.36,80.76Z"/><path class="cls-1" d="M520.27,31.78s14.46,1.11,26.69-8.15c0,0-17.05-8.16-19.65-12.23,0,0,1.12,10.37-7,20.38"/><g class="cls-3"><rect class="cls-1" x="520.27" y="11.4" width="26.68" height="21.49"/></g><path class="cls-1" d="M597.36,23.63c12.23,9.26,26.69,8.15,26.69,8.15-8.15-10-7-20.38-7-20.38-2.59,4.07-19.65,12.23-19.65,12.23"/><g class="cls-4"><rect class="cls-1" x="597.36" y="11.4" width="26.69" height="21.49"/></g><path class="cls-1" d="M531.78,7.81a5.6,5.6,0,1,1-5.6-5.6A5.6,5.6,0,0,1,531.78,7.81Z"/><path class="cls-1" d="M623.26,7.81a5.6,5.6,0,1,1-5.6-5.6A5.6,5.6,0,0,1,623.26,7.81Z"/><path class="cls-1" d="M489.62,13.62A5.6,5.6,0,1,1,484,8,5.59,5.59,0,0,1,489.62,13.62Z"/><path class="cls-1" d="M668.44,13.62A5.6,5.6,0,1,1,662.86,8,5.58,5.58,0,0,1,668.44,13.62Z"/><path class="cls-1" d="M582.46,8.91A8.92,8.92,0,1,1,573.55,0,8.9,8.9,0,0,1,582.46,8.91Z"/><path class="cls-2" d="M670.61,186.91a99.65,99.65,0,0,1-6.94,37.41,88.45,88.45,0,0,1-49.88,50.14q-17.74,7.25-39.38,7.25A103.79,103.79,0,0,1,535,274.46a88.51,88.51,0,0,1-50.07-50.14,104.3,104.3,0,0,1,0-74.82,89,89,0,0,1,19.59-30,90.53,90.53,0,0,1,30.48-20q17.82-7.26,39.45-7.25t39.38,7.31a90.88,90.88,0,0,1,30.35,20,89.52,89.52,0,0,1,19.53,30A99.4,99.4,0,0,1,670.61,186.91Zm-44,0A80.34,80.34,0,0,0,623,162.16a52.52,52.52,0,0,0-10.24-18.64,44.19,44.19,0,0,0-16.36-11.71,56.16,56.16,0,0,0-22-4.07,57,57,0,0,0-22.21,4.07,44,44,0,0,0-16.41,11.71,52.38,52.38,0,0,0-10.25,18.64A80.34,80.34,0,0,0,522,186.91a80.79,80.79,0,0,0,3.56,24.88,52.46,52.46,0,0,0,10.25,18.64,43.44,43.44,0,0,0,16.41,11.64,57.76,57.76,0,0,0,22.21,4,56.9,56.9,0,0,0,22-4,43.58,43.58,0,0,0,16.36-11.64A52.6,52.6,0,0,0,623,211.79,80.79,80.79,0,0,0,626.58,186.91Z"/><path class="cls-2" d="M279.57,410.05A32.46,32.46,0,0,0,292,407.74a23.79,23.79,0,0,0,4.11-2.12c1.15-.76,2.13-1.47,2.94-2.12s1.48-1.21,2-1.65a2.22,2.22,0,0,1,1.2-.66.77.77,0,0,1,.69.32l1.85,2.22a38.22,38.22,0,0,1-5.22,4.49,33.69,33.69,0,0,1-6,3.39,34.5,34.5,0,0,1-6.87,2.18,39,39,0,0,1-7.93.77,28.3,28.3,0,0,1-11.7-2.34,25,25,0,0,1-8.91-6.63,30.16,30.16,0,0,1-5.68-10.29,42.28,42.28,0,0,1-2-13.32,52.14,52.14,0,0,1,3-18,42.81,42.81,0,0,1,8.2-14,37.68,37.68,0,0,1,34.56-11.64,25.94,25.94,0,0,1,5.65,1.78,21.3,21.3,0,0,1,4.72,2.92,37.65,37.65,0,0,1,4.17,4l-1.64,2.13a1.9,1.9,0,0,1-1.44.63c-.42,0-1-.39-1.72-1.16a19.14,19.14,0,0,0-3.16-2.58,24,24,0,0,0-5.38-2.57,25.69,25.69,0,0,0-8.41-1.17A30.78,30.78,0,0,0,265.45,353a37.52,37.52,0,0,0-7,12.37,48.4,48.4,0,0,0-2.58,16.28,37.47,37.47,0,0,0,1.75,11.86,26.68,26.68,0,0,0,4.88,9,20.91,20.91,0,0,0,7.51,5.65A23.13,23.13,0,0,0,279.57,410.05Z"/><path class="cls-2" d="M351.4,413.71H349a1.73,1.73,0,0,1-1.4-.48,1.75,1.75,0,0,1-.4-1.17l1.75-16.6a53.5,53.5,0,0,1-4.43,7.71,35.62,35.62,0,0,1-5.14,6,22.41,22.41,0,0,1-5.76,3.87,14.89,14.89,0,0,1-6.26,1.38,12.47,12.47,0,0,1-5.83-1.3,11.61,11.61,0,0,1-4.17-3.69,17.28,17.28,0,0,1-2.52-5.78,31.39,31.39,0,0,1-.85-7.64,35.33,35.33,0,0,1,1.17-9.05,38.43,38.43,0,0,1,8.44-15.73,35.35,35.35,0,0,1,6.54-5.78,31.78,31.78,0,0,1,7.67-3.82,26.18,26.18,0,0,1,8.43-1.38,30.14,30.14,0,0,1,5.95.56,21.27,21.27,0,0,1,5.46,1.94ZM329,410.21a11.83,11.83,0,0,0,6-1.7,21.6,21.6,0,0,0,5.6-4.8,42.66,42.66,0,0,0,5-7.48,66.62,66.62,0,0,0,4.22-9.69l2.65-21.48a21,21,0,0,0-6.79-1.06,20.42,20.42,0,0,0-6.89,1.19,25.13,25.13,0,0,0-6.29,3.32,29.83,29.83,0,0,0-5.41,5,33.75,33.75,0,0,0-4.27,6.39,34.61,34.61,0,0,0-2.79,7.35,32.2,32.2,0,0,0-1,7.9q0,7.11,2.41,11.06T329,410.21Z"/><path class="cls-2" d="M369,413.71l9.34-77.19h4.94l-9.39,77.19Z"/><path class="cls-2" d="M409.11,414.4a19.46,19.46,0,0,1-7.72-1.49,16.39,16.39,0,0,1-5.94-4.3,19.94,19.94,0,0,1-3.82-6.81,28.41,28.41,0,0,1-1.35-9.1,39.94,39.94,0,0,1,1.91-12.33,34.11,34.11,0,0,1,5.38-10.43,27.16,27.16,0,0,1,8.25-7.19,21.2,21.2,0,0,1,10.51-2.68,19.16,19.16,0,0,1,7.72,1.52,16.63,16.63,0,0,1,5.94,4.29,19.55,19.55,0,0,1,3.82,6.82,28.29,28.29,0,0,1,1.35,9A39.2,39.2,0,0,1,433.22,394a35.21,35.21,0,0,1-5.38,10.42,26.88,26.88,0,0,1-8.22,7.24A21,21,0,0,1,409.11,414.4Zm.43-4A15.36,15.36,0,0,0,418,408a22,22,0,0,0,6.49-6.42,31.55,31.55,0,0,0,4.17-9.17,39.14,39.14,0,0,0,1.46-10.64q0-8.49-3.77-13.1t-10.45-4.62a15.44,15.44,0,0,0-5.78,1.09,17.54,17.54,0,0,0-5,3.05,24,24,0,0,0-4.11,4.64,29.38,29.38,0,0,0-3.08,5.86,37.2,37.2,0,0,0-1.91,6.74,39.72,39.72,0,0,0-.66,7.27q0,8.43,3.74,13.08C401.56,408.87,405,410.42,409.54,410.42Z"/><path class="cls-2" d="M443.91,413.71l6.37-52.95h2.28a1.67,1.67,0,0,1,1.86,1.91l-1.54,15.71q3.6-8.65,8.25-13.35t9.89-4.69a12.11,12.11,0,0,1,4.46.9l-.9,4.72a13.26,13.26,0,0,0-4.57-.9q-5.67,0-10.21,5.59T452,386.81l-3.18,26.9Z"/><path class="cls-2" d="M533.36,432.38h-2.87a1.81,1.81,0,0,1-1.51-.58,2.45,2.45,0,0,1-.45-1.54,4.25,4.25,0,0,1,.05-.69l4.19-33.26a52.91,52.91,0,0,1-4.38,7.4,34,34,0,0,1-5,5.7,21.67,21.67,0,0,1-5.63,3.69,15.08,15.08,0,0,1-6.12,1.3,12.54,12.54,0,0,1-5.84-1.3,11.69,11.69,0,0,1-4.17-3.69,17.48,17.48,0,0,1-2.52-5.78,31.89,31.89,0,0,1-.85-7.64,35.78,35.78,0,0,1,1.17-9.05,38.43,38.43,0,0,1,8.44-15.73,35.41,35.41,0,0,1,6.55-5.78,31.42,31.42,0,0,1,7.67-3.82,26.13,26.13,0,0,1,8.43-1.38,30,30,0,0,1,5.94.56,21.34,21.34,0,0,1,5.47,1.94Zm-20.11-22.17a11.65,11.65,0,0,0,5.92-1.68,21.92,21.92,0,0,0,5.54-4.74,41.25,41.25,0,0,0,5-7.38,66.28,66.28,0,0,0,4.2-9.54l0-.16,2.77-21.65a21,21,0,0,0-6.79-1.06,20.52,20.52,0,0,0-6.9,1.19,25.13,25.13,0,0,0-6.29,3.32,30.16,30.16,0,0,0-5.41,5,34.42,34.42,0,0,0-7.06,13.74,32.19,32.19,0,0,0-1,7.9q0,7.11,2.41,11.06C507.29,408.89,509.82,410.21,513.25,410.21Z"/><path class="cls-2" d="M562.37,360.92l-4,33.58a35.32,35.32,0,0,0-.33,4.62c0,3.61.69,6.35,2,8.25s3.51,2.84,6.44,2.84a13.08,13.08,0,0,0,5.89-1.49,22.81,22.81,0,0,0,5.79-4.27,39,39,0,0,0,5.3-6.69,49.62,49.62,0,0,0,4.4-8.78l3.4-28.06h5L590,413.71h-2.34a1.81,1.81,0,0,1-1.45-.53,2.11,2.11,0,0,1-.45-1.43l1.59-15a46.44,46.44,0,0,1-4.81,7.48,33.29,33.29,0,0,1-5.51,5.55,23.55,23.55,0,0,1-6,3.44,16.81,16.81,0,0,1-6.15,1.2q-5.89,0-8.83-3.9t-2.95-11.12c0-.31,0-.66,0-1s.06-1,.16-1.91.22-2.15.39-3.74.43-3.76.75-6.5.71-6.16,1.19-10.26,1.07-9.11,1.78-15Z"/><path class="cls-2" d="M645.72,371a14.44,14.44,0,0,1-.59,4.14,10.3,10.3,0,0,1-2.06,3.71,16.76,16.76,0,0,1-4,3.32,30.81,30.81,0,0,1-6.52,2.86,75.88,75.88,0,0,1-9.5,2.34q-5.52,1-12.94,1.83c-.08.74-.13,1.47-.16,2.2s0,1.44,0,2.15q0,7.9,3.57,12.36t10.8,4.45a19.75,19.75,0,0,0,5.07-.6,19.11,19.11,0,0,0,4-1.57,22.55,22.55,0,0,0,3.13-2c.9-.7,1.7-1.37,2.41-2s1.31-1.16,1.83-1.57a2.41,2.41,0,0,1,1.4-.61,1.45,1.45,0,0,1,1.12.54l1.17,1.37a51.75,51.75,0,0,1-5.07,4.75,28.3,28.3,0,0,1-5,3.26,22.76,22.76,0,0,1-5.23,1.89,26.75,26.75,0,0,1-5.78.61,19.88,19.88,0,0,1-7.83-1.46,15.64,15.64,0,0,1-5.76-4.14,18.37,18.37,0,0,1-3.55-6.52,28.6,28.6,0,0,1-1.22-8.63,41.36,41.36,0,0,1,.8-8,39.85,39.85,0,0,1,2.36-7.74A36.24,36.24,0,0,1,612,371a28,28,0,0,1,5.28-5.62,24,24,0,0,1,6.58-3.77,21.61,21.61,0,0,1,7.8-1.38,17.36,17.36,0,0,1,6.55,1.09,13.23,13.23,0,0,1,4.35,2.7,10.32,10.32,0,0,1,2.42,3.5A9.8,9.8,0,0,1,645.72,371Zm-14.33-7.11a16.14,16.14,0,0,0-7.67,1.81,20.93,20.93,0,0,0-6,4.8,27.82,27.82,0,0,0-4.41,6.95,37.85,37.85,0,0,0-2.62,8.24q6.74-.74,11.62-1.72a75.72,75.72,0,0,0,8.27-2.07,25.57,25.57,0,0,0,5.49-2.36,13.44,13.44,0,0,0,3.26-2.62,7,7,0,0,0,1.57-2.79,11.2,11.2,0,0,0,.39-3,6.77,6.77,0,0,0-.49-2.41,6.2,6.2,0,0,0-1.68-2.36,9.37,9.37,0,0,0-3.05-1.78A13.07,13.07,0,0,0,631.39,363.89Z"/><path class="cls-2" d="M671.87,432.38l8.7-71.62h2.28a1.66,1.66,0,0,1,1.85,1.91L683,379.28a50.41,50.41,0,0,1,4.65-7.83,36.64,36.64,0,0,1,5.47-6,23.46,23.46,0,0,1,6-3.9,15.66,15.66,0,0,1,6.37-1.38,13.21,13.21,0,0,1,6,1.32,12.21,12.21,0,0,1,4.35,3.74,17.36,17.36,0,0,1,2.65,5.86,30.52,30.52,0,0,1,.91,7.7,42.45,42.45,0,0,1-.85,8.3,48.6,48.6,0,0,1-2.42,8.17,44.27,44.27,0,0,1-3.81,7.45,30.76,30.76,0,0,1-5.13,6.1,23.51,23.51,0,0,1-6.28,4.12,17.87,17.87,0,0,1-7.25,1.51,16.83,16.83,0,0,1-7.93-1.91,15.32,15.32,0,0,1-5.92-5.62l-3.12,25.51Zm32-68.17a12.63,12.63,0,0,0-6.08,1.67,23.15,23.15,0,0,0-5.86,4.75,41.77,41.77,0,0,0-5.31,7.4,58.61,58.61,0,0,0-4.39,9.63l-1.87,15.17a13.82,13.82,0,0,0,5.73,5.89,15.65,15.65,0,0,0,7.06,1.7,14.5,14.5,0,0,0,6.23-1.35,18.91,18.91,0,0,0,5.26-3.69,26.81,26.81,0,0,0,4.19-5.44,40.44,40.44,0,0,0,3.08-6.55,45.07,45.07,0,0,0,1.9-7.08,39.74,39.74,0,0,0,.66-7.09q0-7.1-2.7-11.06A9,9,0,0,0,703.86,364.21Z"/><path class="cls-2" d="M767.2,371a14.44,14.44,0,0,1-.59,4.14,10.3,10.3,0,0,1-2.06,3.71,16.76,16.76,0,0,1-4,3.32A30.46,30.46,0,0,1,754,385a75.25,75.25,0,0,1-9.49,2.34q-5.52,1-12.94,1.83c-.08.74-.12,1.47-.16,2.2s0,1.44,0,2.15q0,7.9,3.58,12.36t10.79,4.45a19.7,19.7,0,0,0,5.07-.6,19.11,19.11,0,0,0,4-1.57,22.68,22.68,0,0,0,3.14-2c.89-.7,1.7-1.37,2.4-2s1.32-1.16,1.83-1.57a2.4,2.4,0,0,1,1.41-.61,1.45,1.45,0,0,1,1.12.54l1.16,1.37a51.71,51.71,0,0,1-5.06,4.75,28.37,28.37,0,0,1-5,3.26,22.69,22.69,0,0,1-5.22,1.89,26.78,26.78,0,0,1-5.79.61,19.79,19.79,0,0,1-7.82-1.46,15.37,15.37,0,0,1-5.75-4.14,18.1,18.1,0,0,1-3.57-6.52,28.61,28.61,0,0,1-1.21-8.63,41.34,41.34,0,0,1,.79-8,39.85,39.85,0,0,1,2.36-7.74,36.24,36.24,0,0,1,3.87-6.95,28,28,0,0,1,5.28-5.62,24.15,24.15,0,0,1,6.58-3.77,21.65,21.65,0,0,1,7.8-1.38,17.32,17.32,0,0,1,6.55,1.09A13.34,13.34,0,0,1,764,364a10,10,0,0,1,2.41,3.5A9.62,9.62,0,0,1,767.2,371Zm-14.32-7.11a16.08,16.08,0,0,0-7.67,1.81,21,21,0,0,0-6.05,4.8,27.82,27.82,0,0,0-4.41,6.95,39,39,0,0,0-2.62,8.24q6.74-.74,11.63-1.72A76.92,76.92,0,0,0,752,381.9a25.46,25.46,0,0,0,5.48-2.36,13.71,13.71,0,0,0,3.27-2.62,7.25,7.25,0,0,0,1.56-2.79,10.81,10.81,0,0,0,.4-3,6.41,6.41,0,0,0-.51-2.41,6.14,6.14,0,0,0-1.66-2.36,9.65,9.65,0,0,0-3.06-1.78A13,13,0,0,0,752.88,363.89Z"/><path class="cls-2" d="M775.21,413.71l6.36-52.95h2.29a1.66,1.66,0,0,1,1.85,1.91l-1.54,15.71q3.62-8.65,8.25-13.35c3.1-3.13,6.39-4.69,9.9-4.69a12.06,12.06,0,0,1,4.45.9l-.9,4.72a13.25,13.25,0,0,0-4.56-.9q-5.67,0-10.21,5.59t-7.78,16.16l-3.18,26.9Z"/><path class="cls-2" d="M843.6,413.71a1.77,1.77,0,0,1-1.42-.48,1.8,1.8,0,0,1-.39-1.17l1.75-16.81a50.74,50.74,0,0,1-4.64,7.82,37.09,37.09,0,0,1-5.45,6.05,23.29,23.29,0,0,1-6,3.9,15.62,15.62,0,0,1-6.36,1.38,13.16,13.16,0,0,1-6.05-1.33,12,12,0,0,1-4.35-3.77,17.72,17.72,0,0,1-2.65-5.89,30.17,30.17,0,0,1-.91-7.74,41.43,41.43,0,0,1,.85-8.25,49.52,49.52,0,0,1,2.41-8.17,43,43,0,0,1,3.82-7.43,30.74,30.74,0,0,1,5.13-6.07,23.53,23.53,0,0,1,6.26-4.11,17.59,17.59,0,0,1,7.26-1.51,16.76,16.76,0,0,1,7.91,1.88,15.36,15.36,0,0,1,5.94,5.65l3.88-31.14h4.87L846,413.71Zm-20.86-3.4a12.35,12.35,0,0,0,6-1.67,23.45,23.45,0,0,0,5.86-4.75,40.43,40.43,0,0,0,5.31-7.4,62.16,62.16,0,0,0,4.37-9.57l1.86-15.28a13.48,13.48,0,0,0-5.68-5.84,15.59,15.59,0,0,0-7.06-1.7,14.43,14.43,0,0,0-6.23,1.36,19,19,0,0,0-5.25,3.68,27.23,27.23,0,0,0-4.19,5.42,37.81,37.81,0,0,0-3.08,6.52,43.8,43.8,0,0,0-1.9,7.11,38.87,38.87,0,0,0-.67,7.06q0,7.11,2.71,11.08A9,9,0,0,0,822.74,410.31Z"/><path class="cls-2" d="M873.24,360.92l-4,33.58a37,37,0,0,0-.32,4.62c0,3.61.68,6.35,2,8.25s3.51,2.84,6.45,2.84a13.12,13.12,0,0,0,5.89-1.49,22.39,22.39,0,0,0,5.77-4.27,38.52,38.52,0,0,0,5.31-6.69,49.63,49.63,0,0,0,4.41-8.78l3.4-28.06h5l-6.37,52.79h-2.34a1.82,1.82,0,0,1-1.45-.53,2.17,2.17,0,0,1-.45-1.43l1.59-15a45.74,45.74,0,0,1-4.8,7.48,33.71,33.71,0,0,1-5.52,5.55,23.38,23.38,0,0,1-6,3.44,16.85,16.85,0,0,1-6.15,1.2q-5.88,0-8.83-3.9T864,399.38c0-.31,0-.66,0-1s.07-1,.16-1.91.22-2.15.4-3.74.41-3.76.74-6.5.71-6.16,1.19-10.26,1.07-9.11,1.78-15Z"/><path class="cls-2" d="M917.12,413.71l6.37-52.95h2.27a1.67,1.67,0,0,1,1.86,1.91l-1.54,15.71q3.61-8.65,8.25-13.35t9.9-4.69a12.06,12.06,0,0,1,4.45.9l-.9,4.72a13.21,13.21,0,0,0-4.56-.9q-5.69,0-10.21,5.59t-7.78,16.16l-3.18,26.9Z"/><path class="cls-2" d="M986.3,413.71h-2.44a1.55,1.55,0,0,1-1.81-1.65l1.75-16.6a53.5,53.5,0,0,1-4.43,7.71,35.62,35.62,0,0,1-5.14,6,22.41,22.41,0,0,1-5.76,3.87,14.89,14.89,0,0,1-6.26,1.38,12.57,12.57,0,0,1-5.84-1.3,11.66,11.66,0,0,1-4.16-3.69,17.08,17.08,0,0,1-2.52-5.78,31.39,31.39,0,0,1-.85-7.64,35.33,35.33,0,0,1,1.17-9.05,38.43,38.43,0,0,1,8.44-15.73,35.35,35.35,0,0,1,6.54-5.78,32,32,0,0,1,7.67-3.82,26.24,26.24,0,0,1,8.44-1.38,30.19,30.19,0,0,1,5.94.56,21.47,21.47,0,0,1,5.47,1.94Zm-22.44-3.5a11.83,11.83,0,0,0,6-1.7,22,22,0,0,0,5.61-4.8,43.79,43.79,0,0,0,5-7.48,67.72,67.72,0,0,0,4.22-9.69l2.64-21.48a20.9,20.9,0,0,0-6.78-1.06,20.43,20.43,0,0,0-6.9,1.19,25.13,25.13,0,0,0-6.29,3.32,30.55,30.55,0,0,0-5.42,5,34.58,34.58,0,0,0-7,13.74,32.19,32.19,0,0,0-1,7.9q0,7.11,2.41,11.06A8.21,8.21,0,0,0,963.86,410.21Z"/><rect class="cls-2" x="1317.75" y="94.27" width="3.98" height="185.41"/><path class="cls-2" d="M1415.15,129.07a1,1,0,0,1-1,1h-21.06v17.32h17.73a1,1,0,0,1,1,1V150a1,1,0,0,1-1,1h-17.73V168.4h22.21a1,1,0,0,1,1,1V171a1,1,0,0,1-1,1h-25.13a1,1,0,0,1-1-1V127.51a1,1,0,0,1,1-1h24a1,1,0,0,1,1,1Z"/><path class="cls-2" d="M1432,141.78a20.3,20.3,0,0,1,11-3.74c4.21,0,7.47,1,9.92,4.14A21.7,21.7,0,0,1,1464.8,138c7.61,0,11.69,4.14,11.69,11.2v16a12.51,12.51,0,0,0,.54,3.87,39,39,0,0,0,4.14.2.93.93,0,0,1,1,1v.34a1.23,1.23,0,0,1-.75,1.22,8.73,8.73,0,0,1-3.6.82c-3.19,0-5.09-2-5.09-5.44V150.61c0-6.12-3.12-8.83-8.49-8.83a19.85,19.85,0,0,0-9.92,3.05,13.12,13.12,0,0,1,.55,4.08V171a1,1,0,0,1-1,1h-1.7a1,1,0,0,1-1-1V149.92c0-5.63-2.58-8.14-8.9-8.14-3.39,0-6.31,1.08-9.64,2.71a36.62,36.62,0,0,1,.34,4.42V171a1,1,0,0,1-1,1h-1.7a1,1,0,0,1-1-1V149.86c0-4.42-.74-6.52-2.71-8.83a.9.9,0,0,1,.13-1.43l1.29-1.09a1,1,0,0,1,1.36-.13A7.55,7.55,0,0,1,1432,141.78Z"/><path class="cls-2" d="M1494.75,141.78a20.68,20.68,0,0,1,11.48-3.74c8.83,0,14.33,6.65,14.33,16.71,0,11.27-5.43,17.93-15.62,17.93a25.91,25.91,0,0,1-9.24-1.63v14.87a1,1,0,0,1-1,1H1493a1,1,0,0,1-1-1V149.86c0-4.42-.75-6.52-2.72-8.83a.9.9,0,0,1,.14-1.43l1.29-1.09a1,1,0,0,1,1.35-.13A7.55,7.55,0,0,1,1494.75,141.78Zm.61,2.71a34.67,34.67,0,0,1,.34,4.42v18.6a29.2,29.2,0,0,0,9.51,1.43,14.41,14.41,0,0,0,8-2c2.37-3,3.39-7.48,3.39-12.16,0-8.56-4.41-13-11.07-13A22.14,22.14,0,0,0,1495.36,144.49Z"/><path class="cls-2" d="M1535.37,172h-1.7a1,1,0,0,1-1-1V149.86c0-4.42-.75-6.52-2.72-8.83a.91.91,0,0,1,.14-1.43l1.29-1.09c.47-.34.81-.47,1.09-.27A8.54,8.54,0,0,1,1536,144c4.21-3.53,7.13-5.91,10.46-5.91a5.83,5.83,0,0,1,3,.88,1.16,1.16,0,0,1,.4,1.29l-.33,1.7a1.07,1.07,0,0,1-1.16.89h-5a43.91,43.91,0,0,0-7,4.2,14.47,14.47,0,0,1,.07,1.77V171A1,1,0,0,1,1535.37,172Z"/><path class="cls-2" d="M1555.6,155.7c0-10.87,5.51-17.66,15.29-17.66,7.13,0,12,4.14,12,12.16a18.36,18.36,0,0,1-.54,4.75,1,1,0,0,1-1.09.89l-21.73.33c.06,7.07,3.26,12.77,11.61,12.77a19.56,19.56,0,0,0,9.1-2.24.93.93,0,0,1,1.36.48l.34.74a1.08,1.08,0,0,1-.27,1.43,18.22,18.22,0,0,1-11,3.33C1560.9,172.68,1555.6,166,1555.6,155.7Zm4.08-2.58,19-.54a10.68,10.68,0,0,0,.27-2.45c0-4.75-2.44-8.35-8.22-8.35a14.79,14.79,0,0,0-7.88,2A17,17,0,0,0,1559.68,153.12Z"/><path class="cls-2" d="M1614,140.21a1.32,1.32,0,0,1,.68,1.16,27.41,27.41,0,0,1-.4,5.84,1,1,0,0,1-1.09.88h-1.15a1,1,0,0,1-1.09-1,23.8,23.8,0,0,0-.41-4.41,18.47,18.47,0,0,0-6.18-.88c-4.82,0-8.29,1.9-8.29,5.77,0,8.29,19.63,4.89,19.63,16.1,0,6-6.11,9-12.29,9a20.62,20.62,0,0,1-11.34-3.33c-.55-.34-.55-.82-.28-1.36l.55-1.08a.9.9,0,0,1,1.36-.41,21.26,21.26,0,0,0,10.12,2.44c4.89,0,7.94-1.76,7.94-5.09,0-8.29-19.62-4.69-19.62-16.23,0-5.51,5-9.58,12.29-9.58C1608.45,138,1612,138.92,1614,140.21Z"/><path class="cls-2" d="M1650.82,172.68c-2.58,0-4.27-1.29-4.82-3.47a19,19,0,0,1-11,3.47c-6.32,0-10.59-3.33-10.59-9.1,0-6.86,6.85-10.12,18.88-10.12h2.44V150.4c0-6-2.78-8.62-9-8.62a12.61,12.61,0,0,0-5.71,1c-.13,1.21-.41,2.64-.47,4.27a.93.93,0,0,1-1,1h-1.43a1.31,1.31,0,0,1-1.22-.61,4.4,4.4,0,0,1-.54-2.1c0-4.35,5.43-7.34,11.34-7.34,6.79,0,11.82,3.26,11.82,11.2v16a10.69,10.69,0,0,0,.54,3.87,36.86,36.86,0,0,0,4.07.2.93.93,0,0,1,1,1v.34a1.29,1.29,0,0,1-.67,1.22A9.11,9.11,0,0,1,1650.82,172.68Zm-15.41-3.74a22.92,22.92,0,0,0,10.32-2.78v-9.65h-2.58c-5,0-10.66.89-13.65,2.72a7.72,7.72,0,0,0-1.16,4.14C1628.34,167.18,1631.33,168.94,1635.41,168.94Z"/><path class="cls-2" d="M1714.4,172.68a4.49,4.49,0,0,1-4.76-3.47c-2.1,1.91-5.71,3.47-10.53,3.47-9,0-14.66-6.52-14.66-16.51,0-11.61,5.77-18.13,16-18.13a22.27,22.27,0,0,1,9,1.77V124.05a1.05,1.05,0,0,1,1-1.09l1.7-.34c.68-.14,1.09.27,1.09.95v41.64a13,13,0,0,0,.47,3.87,39.1,39.1,0,0,0,4.15.2.94.94,0,0,1,1,1v.34a1.29,1.29,0,0,1-.69,1.22A9.37,9.37,0,0,1,1714.4,172.68Zm-15.15-3.74a18.52,18.52,0,0,0,10.12-3V143.4a24.22,24.22,0,0,0-9-1.62c-3.32,0-6.65.74-8.49,2.17a20.34,20.34,0,0,0-3.53,12.16C1688.38,164.6,1692.94,168.94,1699.25,168.94Z"/><path class="cls-2" d="M1725.12,155.7c0-10.87,5.5-17.66,15.28-17.66,7.14,0,12,4.14,12,12.16a17.93,17.93,0,0,1-.54,4.75,1,1,0,0,1-1.08.89l-21.74.33c.07,7.07,3.26,12.77,11.61,12.77a19.64,19.64,0,0,0,9.11-2.24.92.92,0,0,1,1.35.48l.35.74a1.07,1.07,0,0,1-.28,1.43,18.21,18.21,0,0,1-11,3.33C1730.42,172.68,1725.12,166,1725.12,155.7Zm4.07-2.58,19-.54a10.68,10.68,0,0,0,.27-2.45c0-4.75-2.45-8.35-8.22-8.35a14.79,14.79,0,0,0-7.88,2A17.11,17.11,0,0,0,1729.19,153.12Z"/><path class="cls-2" d="M1420.79,216.62a9.4,9.4,0,0,1-1,4.28,1.29,1.29,0,0,1-1.22.68h-1a.93.93,0,0,1-1-1,30.18,30.18,0,0,0-.88-7.67,24.25,24.25,0,0,0-9.78-1.63,19.33,19.33,0,0,0-10.66,2.92c-3.54,3.67-6.18,9.24-6.18,18.13,0,9.86,5.3,17.94,18.4,17.94a28,28,0,0,0,10.26-2v-12.9h-9.58a1,1,0,0,1-1-1v-1.57a1,1,0,0,1,1-1h12.5a1,1,0,0,1,1,1v16.51a1.38,1.38,0,0,1-.61,1.22,27,27,0,0,1-14.06,3.67c-15.15,0-22.08-9.58-22.08-22.15,0-14.6,6.73-24.71,21.6-24.71C1414.68,207.32,1420.79,210.57,1420.79,216.62Z"/><path class="cls-2" d="M1437.43,253.5h-1.7a1,1,0,0,1-1-1V231.36c0-4.42-.75-6.52-2.72-8.83a.9.9,0,0,1,.13-1.43l1.29-1.09c.48-.34.82-.47,1.09-.27a8.54,8.54,0,0,1,3.53,5.71c4.21-3.53,7.13-5.91,10.46-5.91a5.8,5.8,0,0,1,3,.88,1.17,1.17,0,0,1,.41,1.29l-.34,1.7a1.06,1.06,0,0,1-1.16.88h-5a44.36,44.36,0,0,0-7,4.21,14.47,14.47,0,0,1,.07,1.77v22.21A1,1,0,0,1,1437.43,253.5Z"/><path class="cls-2" d="M1463.65,242c0,6.39,2.85,8.49,8.76,8.49a20.08,20.08,0,0,0,10.12-2.65V221.24a1,1,0,0,1,1-1h1.7a1,1,0,0,1,1,1v25.47a10.69,10.69,0,0,0,.54,3.87,37.18,37.18,0,0,0,4.14.2.93.93,0,0,1,1,1v.34a1.23,1.23,0,0,1-.75,1.22,8.73,8.73,0,0,1-3.6.82c-2.51,0-4.27-1.22-4.82-3.4a19.68,19.68,0,0,1-11.14,3.4c-7.67,0-11.75-4-11.75-11.21V221.24a1,1,0,0,1,1-1h1.7a1,1,0,0,1,1,1Z"/><path class="cls-2" d="M1504.53,223.27a20.69,20.69,0,0,1,11.48-3.73c8.83,0,14.33,6.65,14.33,16.71,0,11.27-5.43,17.93-15.62,17.93a25.91,25.91,0,0,1-9.24-1.63v14.87a1,1,0,0,1-1,1h-1.7a1,1,0,0,1-1-1V231.36c0-4.42-.75-6.52-2.72-8.83a.9.9,0,0,1,.14-1.43l1.29-1.09a1,1,0,0,1,1.35-.13A7.58,7.58,0,0,1,1504.53,223.27Zm.61,2.72a34.67,34.67,0,0,1,.34,4.42V249a29.24,29.24,0,0,0,9.51,1.43,14.41,14.41,0,0,0,8-2c2.37-3,3.39-7.48,3.39-12.16,0-8.56-4.41-13-11.07-13A22.14,22.14,0,0,0,1505.14,226Z"/><path class="cls-2" d="M1569.46,236.72c0,10.94-5.5,17.46-15.28,17.46S1539,247.25,1539,236.31c0-10.25,5.44-16.77,15.15-16.77S1569.46,226.53,1569.46,236.72Zm-23.16-11.41c-2,2.52-3.33,6.59-3.33,11.34,0,7.54,3.13,13.79,11.55,13.79a15.71,15.71,0,0,0,7.68-1.9c2.24-2.58,3.32-6.79,3.32-11.48,0-7.54-3.12-13.79-11.47-13.79A14.31,14.31,0,0,0,1546.3,225.31Z"/><path class="cls-2" d="M1635.48,254.18c-3.33,0-5.44-1.63-7.34-4.89l-8.42-14.06h-10v17.25a1,1,0,0,1-1,1h-1.91a1,1,0,0,1-1-1V208.94a1,1,0,0,1,1-1.08,65.7,65.7,0,0,1,9-.54c11.21,0,16.58,5,16.58,13.58,0,6.72-4.28,11.07-8.29,13.45l6.79,11.68a12.59,12.59,0,0,0,3.94,4.21c1,.14,2.51.14,3.74.2a.93.93,0,0,1,1,1v.89a1.24,1.24,0,0,1-.75,1.21A7.91,7.91,0,0,1,1635.48,254.18Zm-25.81-42.93v20.38h12.22a11.71,11.71,0,0,0,6.18-10.39c0-7-4.21-10.33-12.22-10.33C1613.74,210.91,1611.84,211.05,1609.67,211.25Z"/><path class="cls-2" d="M1675.28,236.72c0,10.94-5.51,17.46-15.29,17.46s-15.14-6.93-15.14-17.87c0-10.25,5.43-16.77,15.14-16.77S1675.28,226.53,1675.28,236.72Zm-23.17-11.41c-2,2.52-3.32,6.59-3.32,11.34,0,7.54,3.12,13.79,11.54,13.79a15.71,15.71,0,0,0,7.68-1.9c2.24-2.58,3.33-6.79,3.33-11.48,0-7.54-3.13-13.79-11.48-13.79A14.33,14.33,0,0,0,1652.11,225.31Z"/><path class="cls-2" d="M1696.6,254.18c-5.5,0-9.71-2.92-9.71-10.73V224.29h-5a1,1,0,0,1-1-1v-.74a1,1,0,0,1,.95-1.09l5-.54v-.68l.61-6.59a1.24,1.24,0,0,1,1-1.09l1.09-.2a.81.81,0,0,1,1.08.88v7.68h12.16a1,1,0,0,1,1,1v1.35a1,1,0,0,1-1,1h-12.16v18.34c0,5.84,2.59,7.81,6.66,7.81a10.49,10.49,0,0,0,6.32-2,1,1,0,0,1,1.43.27l.54.74a1,1,0,0,1-.14,1.43A12.55,12.55,0,0,1,1696.6,254.18Z"/><path class="cls-2" d="M1742.11,236.72c0,10.94-5.51,17.46-15.29,17.46s-15.14-6.93-15.14-17.87c0-10.25,5.43-16.77,15.14-16.77S1742.11,226.53,1742.11,236.72ZM1719,225.31c-2,2.52-3.33,6.59-3.33,11.34,0,7.54,3.12,13.79,11.54,13.79a15.71,15.71,0,0,0,7.68-1.9c2.24-2.58,3.33-6.79,3.33-11.48,0-7.54-3.13-13.79-11.48-13.79A14.3,14.3,0,0,0,1719,225.31Z"/><path class="cls-2" d="M1757,223.27a20.63,20.63,0,0,1,11.47-3.73c8.84,0,14.34,6.65,14.34,16.71,0,11.27-5.44,17.93-15.63,17.93a25.85,25.85,0,0,1-9.23-1.63v14.87a1,1,0,0,1-1,1h-1.7a1,1,0,0,1-1-1V231.36c0-4.42-.75-6.52-2.71-8.83a.9.9,0,0,1,.13-1.43l1.29-1.09a1,1,0,0,1,1.36-.13A7.71,7.71,0,0,1,1757,223.27Zm.61,2.72a34.67,34.67,0,0,1,.34,4.42V249a29.18,29.18,0,0,0,9.5,1.43,14.36,14.36,0,0,0,8-2c2.38-3,3.4-7.48,3.4-12.16,0-8.56-4.42-13-11.07-13A22.11,22.11,0,0,0,1757.59,226Z"/><path class="cls-2" d="M1797.45,246.71a12.16,12.16,0,0,0,.55,3.87,37.18,37.18,0,0,0,4.14.2.93.93,0,0,1,1,1v.34a1.23,1.23,0,0,1-.75,1.22,8.72,8.72,0,0,1-3.59.82c-3.2,0-5.1-2-5.1-5.44v-43.2a1,1,0,0,1,1-1.08l1.7-.34c.68-.14,1.08.27,1.08.95Z"/><path class="cls-2" d="M1836,254.18c-2.58,0-4.27-1.29-4.82-3.47a19,19,0,0,1-11,3.47c-6.32,0-10.59-3.33-10.59-9.1,0-6.86,6.85-10.12,18.88-10.12h2.44V231.9c0-6-2.78-8.63-9-8.63a12.64,12.64,0,0,0-5.71,1c-.13,1.22-.41,2.65-.47,4.28a.93.93,0,0,1-1,1h-1.43A1.3,1.3,0,0,1,1812,229a4.4,4.4,0,0,1-.54-2.1c0-4.35,5.43-7.34,11.34-7.34,6.79,0,11.82,3.26,11.82,11.2v16a10.69,10.69,0,0,0,.54,3.87,36.86,36.86,0,0,0,4.07.2.93.93,0,0,1,1,1v.34a1.29,1.29,0,0,1-.67,1.22A9.11,9.11,0,0,1,1836,254.18Zm-15.41-3.74a22.92,22.92,0,0,0,10.32-2.78V238h-2.58c-5,0-10.66.89-13.65,2.72a7.72,7.72,0,0,0-1.16,4.14C1813.48,248.68,1816.47,250.44,1820.55,250.44Z"/><path class="cls-2" d="M1869,221.71a1.34,1.34,0,0,1,.68,1.16,26.75,26.75,0,0,1-.41,5.84,1,1,0,0,1-1.09.88h-1.15a1,1,0,0,1-1.09-1,23.8,23.8,0,0,0-.4-4.41,18.52,18.52,0,0,0-6.18-.89c-4.83,0-8.29,1.91-8.29,5.78,0,8.29,19.63,4.89,19.63,16.1,0,6-6.11,9-12.3,9a20.62,20.62,0,0,1-11.34-3.33c-.54-.34-.54-.82-.27-1.36l.54-1.08a.89.89,0,0,1,1.36-.41,21.29,21.29,0,0,0,10.12,2.44c4.89,0,8-1.76,8-5.09,0-8.29-19.63-4.69-19.63-16.23,0-5.51,5-9.58,12.29-9.58C1863.47,219.54,1867,220.42,1869,221.71Z"/></g></g></svg>