<svg xmlns="http://www.w3.org/2000/svg" viewBox="0 0 461.54 216.97"><defs><style>.cls-1{fill:#007853;}</style></defs><title>tuboplus-logo</title><g id="Capa_2" data-name="Capa 2"><g id="Logotipo"><path class="cls-1" d="M156.84,70.93a19.61,19.61,0,0,0-7.9,3.82,34.16,34.16,0,0,0-7.16,8l-.05-39.24-22.63,4.9.17,102,14.73-3.2,6.2-7.27a18.36,18.36,0,0,0,6.83,4.17,14.3,14.3,0,0,0,7.48.27c7-1.51,13.07-6.53,18.2-15a53.61,53.61,0,0,0,7.67-28.59c0-9.35-2.18-17-6.56-23.08S163.8,69.39,156.84,70.93Zm-2.35,49.15q-2.49,5.16-6.36,6a5.84,5.84,0,0,1-3.3-.23,8.4,8.4,0,0,1-3-2.22l0-16.52c0-4.39.57-7.8,1.77-10.25a7.57,7.57,0,0,1,5.33-4.41c2.48-.56,4.44.43,5.88,2.94s2.11,6.28,2.14,11.31Q157,114.92,154.49,120.08Z"/><polygon class="cls-1" points="63.56 80.98 63.54 60.31 0 74.11 0.03 94.77 19.69 90.51 19.82 171.85 43.27 166.76 43.15 85.41 63.56 80.98"/><path class="cls-1" d="M87.49,87.61l.07,43.1a10.89,10.89,0,0,1-1.7,6A6.74,6.74,0,0,1,81.64,140a2.89,2.89,0,0,1-3.3-1.3c-.75-1.19-1.13-3.08-1.13-5.72l-.08-43.11-22.83,5,.06,47.58q0,10.13,5.39,15.72c3.57,3.76,8.11,5.07,13.59,3.86a20.79,20.79,0,0,0,8.3-4,35.69,35.69,0,0,0,7.25-8l2.18,6.47,19.75-4.28-.12-69.66Z"/><path class="cls-1" d="M319.19,84a65.48,65.48,0,0,1,16.65-6.63h0A46.83,46.83,0,0,1,342,76.23L341.84,0l-22.9,5,.11,79.11Z"/><path class="cls-1" d="M442.05,37.06c-4.81-.53-7.18-1.82-7.18-3.87a4.8,4.8,0,0,1,1.66-3.73,11.38,11.38,0,0,1,5-2.18c4.94-1.08,10.11.16,15.45,3.69l0-20.7a42,42,0,0,0-19.44-.3,39.09,39.09,0,0,0-19.25,10.1c-5.25,5.1-7.89,10.9-7.86,17.38a16.4,16.4,0,0,0,3.39,9.87c2.29,3,7.28,5.27,15,6.62a22.71,22.71,0,0,1,6.62,1.89,3.34,3.34,0,0,1,1.78,3.09A6.47,6.47,0,0,1,435,63.75a10.93,10.93,0,0,1-5.35,2.82c-5.4,1.18-11.8-.54-19.19-5l0,21.19a46.27,46.27,0,0,0,22.61,1.15,38.15,38.15,0,0,0,20.54-11.4q7.95-8.7,8-18.78C461.51,44.11,455,38.57,442.05,37.06Z"/><path class="cls-1" d="M381.3,23.79l.08,43.11a10.82,10.82,0,0,1-1.68,6,6.8,6.8,0,0,1-4.25,3.22,2.85,2.85,0,0,1-3.29-1.32c-.77-1.16-1.12-3.07-1.14-5.7L371,26.05l-22.84,5,.08,45.62a10.53,10.53,0,0,1,6.35,14.44c3.23-.32,6.51-.49,9.81-.49,2.76,0,8.33.31,11.56,1.41a9.49,9.49,0,0,1,1.45.57,38.08,38.08,0,0,0,5.33-6.33l2.19,6.46,19.76-4.28-.11-69.66Z"/><path class="cls-1" d="M237.54,62.91c-6.07-5-13.82-6.5-23.32-4.45A37.53,37.53,0,0,0,191.15,73.7c-5.86,8.12-8.75,17.62-8.74,28.53,0,10.49,2.84,18.51,8.42,24.08s13.4,7.24,23.42,5.07A38.08,38.08,0,0,0,238,115.94q8.76-12.15,8.74-28.4Q246.67,70.44,237.54,62.91Zm-16.63,44.34c-1.43,3.35-3.59,5.35-6.47,6s-5-.46-6.41-3.2-2.15-7.2-2.17-13.29.7-11,2.14-14.4,3.61-5.42,6.45-6,5,.46,6.42,3.25S223,86.84,223,93.07,222.35,103.9,220.91,107.25Z"/><path class="cls-1" d="M274.74,145.52l0-33.1a17.85,17.85,0,0,0,6.4,3,15.37,15.37,0,0,0,6.75,0c.72-.16,1.42-.36,2.12-.59a75.71,75.71,0,0,1,20.62-24.9,57.43,57.43,0,0,0,2.57-17.54q0-14.39-6.54-23.48t-17.37-6.72a20,20,0,0,0-8.56,4.18,31.91,31.91,0,0,0-7,8.62l-2.22-7.33L251.92,51.9l.16,102.16,20.84-4.54C273.51,148.16,274.12,146.82,274.74,145.52Zm1.66-77.79a7.63,7.63,0,0,1,5.29-4.27c2.42-.51,4.34.49,5.81,3s2.21,6.44,2.21,11.75a31,31,0,0,1-2.29,12.9q-2.28,5.05-6.39,5.94a5.81,5.81,0,0,1-3.47-.23,7.29,7.29,0,0,1-2.86-2.27l0-17C274.66,73.33,275.24,70.08,276.4,67.73Z"/><path class="cls-1" d="M362.12,117.38s-.06,0-.07-.08-.06-.06-.09-.07c-2.66-2.51-6.84-2.6-6.84-2.6a36.1,36.1,0,0,0-8,.15c-41,3.77-76.58,39.95-76.58,83.4A178.31,178.31,0,0,0,272.19,217l1-.23c-.29-2.64-.69-8.5-.69-11.22,0-41.16,33.71-74.89,74.12-74.89,2.76,0,8.28.4,10.16.35h.09a7.91,7.91,0,0,0,5.29-13.56Z"/><path class="cls-1" d="M374.67,96.13c-2.51-.85-7.28-1.22-10.31-1.22a96.4,96.4,0,0,0-73.69,33.7c-6.17,7.32-11.26,15.71-15.76,27.46l1.65-.38a79.45,79.45,0,0,1,16-21.88A83.38,83.38,0,0,1,352,110.41a108.54,108.54,0,0,1,11.94,1.06c3.29.44,6.3,1,7.84,1.06h.5a8.38,8.38,0,0,0,2.4-16.41Z"/><path class="cls-1" d="M330.07,95.91c4.79-1.35,12-2.32,15.81-3a6.25,6.25,0,0,0-.49-12.41,29,29,0,0,0-8.5,1.1,61.09,61.09,0,0,0-15.6,6.22c-16.53,10-23.33,21.43-27.76,29.54l1.59-.06C304.79,107.08,315.69,100,330.07,95.91Z"/></g></g></svg>