<?xml version="1.0" encoding="utf-8"?>
<!-- Generator: Adobe Illustrator 22.1.0, SVG Export Plug-In . SVG Version: 6.00 Build 0)  -->
<svg version="1.1" id="Capa_1" xmlns="http://www.w3.org/2000/svg" xmlns:xlink="http://www.w3.org/1999/xlink" x="0px" y="0px"
	 viewBox="0 0 19 24" style="enable-background:new 0 0 19 24;" xml:space="preserve">
<style type="text/css">
	.st0{fill:#009CDE;}
</style>
<path class="st0" d="M18.7,13.4c-0.5-0.5-1.2-0.5-1.6,0L10.7,20V1.2c0-0.7-0.5-1.2-1.2-1.2C8.9,0,8.3,0.5,8.3,1.2v18.7L2,13.3
	c-0.5-0.5-1.2-0.5-1.6,0c-0.5,0.5-0.5,1.2,0,1.7l8.4,8.6C8.9,23.9,9.2,24,9.5,24c0.3,0,0.6-0.1,0.8-0.3l8.3-8.6
	C19.1,14.6,19.1,13.8,18.7,13.4z"/>
</svg>
