<?xml version="1.0" encoding="utf-8"?>
<!-- Generator: Adobe Illustrator 22.1.0, SVG Export Plug-In . SVG Version: 6.00 Build 0)  -->
<svg version="1.1" id="Capa_1" xmlns="http://www.w3.org/2000/svg" xmlns:xlink="http://www.w3.org/1999/xlink" x="0px" y="0px"
	 viewBox="0 0 10 10" style="enable-background:new 0 0 10 10;" xml:space="preserve">
<style type="text/css">
	.st0{fill:#009CDE;}
</style>
<g>
	<path class="st0" d="M4.9,2.5c-0.1,0.1-0.1,0.3,0,0.5l1.8,1.8H2.5C2.3,4.7,2.2,4.8,2.2,5c0,0.2,0.1,0.3,0.3,0.3h4.2L4.9,7.1
		c-0.1,0.1-0.1,0.3,0,0.5c0.1,0.1,0.3,0.1,0.5,0l2.4-2.3C7.8,5.2,7.8,5.1,7.8,5c0-0.1,0-0.2-0.1-0.2L5.4,2.5C5.2,2.3,5,2.3,4.9,2.5z
		"/>
	<path class="st0" d="M5,10c-2.8,0-5-2.2-5-5s2.2-5,5-5c2.8,0,5,2.2,5,5S7.8,10,5,10z M5,0.6c-2.4,0-4.4,2-4.4,4.4s2,4.4,4.4,4.4
		s4.4-2,4.4-4.4S7.4,0.6,5,0.6z"/>
</g>
</svg>
