<svg xmlns="http://www.w3.org/2000/svg" xmlns:xlink="http://www.w3.org/1999/xlink" viewBox="0 0 155.36 50.83"><defs><style>.cls-1{fill:none;}.cls-2{clip-path:url(#clip-path);}.cls-3{fill:#fff;}</style><clipPath id="clip-path" transform="translate(0)"><rect class="cls-1" width="155.36" height="50.83"/></clipPath></defs><title>logo-innwai</title><g id="Capa_2" data-name="Capa 2"><g id="Capa_1-2" data-name="Capa 1"><g class="cls-2"><path class="cls-3" d="M5.18,50.68H3.68a.57.57,0,0,1-.59-.44L.94,43.72a.44.44,0,0,1,.41-.64l1.2-.16a.56.56,0,0,1,.65.42l1.53,4.9.42-.93a18.79,18.79,0,0,0,.77-1.92,10.88,10.88,0,0,0-.09-1.86.48.48,0,0,1,.46-.59l1-.15a.56.56,0,0,1,.66.27,2.16,2.16,0,0,1,.19.89,2.46,2.46,0,0,1-.06.57l1.28,3.83.23-.52a16.32,16.32,0,0,0,.9-2.44,10.88,10.88,0,0,0-.09-1.86.48.48,0,0,1,.46-.59l1-.15a.54.54,0,0,1,.65.27,2,2,0,0,1,.2.89,13.32,13.32,0,0,1-1.42,4.34l-.86,2a.62.62,0,0,1-.63.41H8.35a.59.59,0,0,1-.61-.44l-.89-2.62L5.79,50.27a.61.61,0,0,1-.61.41" transform="translate(0)"/><path class="cls-3" d="M20.14,50.83a1.47,1.47,0,0,1-1.46-1,3.41,3.41,0,0,1-2.42,1,2.09,2.09,0,0,1-2.36-2.1c0-1.57,1.46-2.61,4.43-2.61h.18v0c0-1-.33-1.33-1.32-1.33a2.44,2.44,0,0,0-.87.14c0,.09,0,.18-.05.31a.48.48,0,0,1-.53.51H15a.58.58,0,0,1-.62-.36,1.41,1.41,0,0,1-.06-.44c0-1.22,1.29-2.12,3.24-2.12s3.13.93,3.13,2.82v2a3.52,3.52,0,0,0,.09,1l.37,0a.5.5,0,0,1,.51.54V50a.64.64,0,0,1-.35.63,2.67,2.67,0,0,1-1.13.25m-3.06-1.9a3.42,3.42,0,0,0,1.43-.34V47.42h-.22a4.9,4.9,0,0,0-2.09.38,1.29,1.29,0,0,0-.11.45c0,.52.43.69,1,.69" transform="translate(0)"/><path class="cls-3" d="M22.77,43.34l.94-.25.23-1.48a.56.56,0,0,1,.52-.53l.81-.12a.45.45,0,0,1,.58.48v1.65h1.93a.49.49,0,0,1,.53.54v.82a.48.48,0,0,1-.53.53H25.85v2.27c0,1.33.47,1.62,1.12,1.62a2.07,2.07,0,0,0,.77-.15c.33-.16.57-.1.71.22l.22.46a.55.55,0,0,1-.16.72,3.08,3.08,0,0,1-2,.71c-1.6,0-2.76-.89-2.76-3.06V45h-.87a.49.49,0,0,1-.53-.53v-.52a.54.54,0,0,1,.46-.59" transform="translate(0)"/><path class="cls-3" d="M29.63,46.83c0-2.37,1.32-4,3.79-4a2.91,2.91,0,0,1,3.19,3.06,4.84,4.84,0,0,1-.14,1.07.57.57,0,0,1-.59.45l-4,.11a1.7,1.7,0,0,0,1.91,1.39,4.8,4.8,0,0,0,1.55-.26.5.5,0,0,1,.7.29l.2.47a.54.54,0,0,1-.17.72,4.74,4.74,0,0,1-2.62.74c-2.41,0-3.85-1.55-3.85-4m2.24-.63,2.65-.12c0-.11,0-.21,0-.32,0-.6-.27-1-1.17-1a2.44,2.44,0,0,0-1.1.26,2.77,2.77,0,0,0-.39,1.19" transform="translate(0)"/><path class="cls-3" d="M40.07,50.68H39a.49.49,0,0,1-.53-.53V46a3.64,3.64,0,0,0-.35-1.67.5.5,0,0,1,.1-.73l.7-.58c.23-.2.43-.26.6-.17A1.88,1.88,0,0,1,40.37,44a4,4,0,0,1,2.33-1.17,1.7,1.7,0,0,1,.49.07c.29.11.35.35.29.66l-.21,1.05a.54.54,0,0,1-.58.47h-.81a7.92,7.92,0,0,0-1.28.41v4.67a.49.49,0,0,1-.53.53" transform="translate(0)"/><path class="cls-3" d="M50.52,40.93a1.12,1.12,0,0,1-.21.68,1.12,1.12,0,0,1-.44.08c-.41,0-.66-.29-.66-.76a1.14,1.14,0,0,1,.09-.46.3.3,0,0,1,.25-.2l.42-.06a.33.33,0,0,1,.29.08.94.94,0,0,1,.26.64m-.24,8.23a2.9,2.9,0,0,0,.12.87,8.38,8.38,0,0,0,.93,0,.21.21,0,0,1,.23.23v.08a.28.28,0,0,1-.17.27,2,2,0,0,1-.81.18,1.08,1.08,0,0,1-1.14-1.21V43.44a.22.22,0,0,1,.23-.23h.38a.22.22,0,0,1,.23.23Z" transform="translate(0)"/><path class="cls-3" d="M54.26,43.9a5,5,0,0,1,2.59-.84c1.77,0,2.73.93,2.73,2.52v3.58a3,3,0,0,0,.1.87,8.74,8.74,0,0,0,.93,0,.21.21,0,0,1,.23.23v.08a.28.28,0,0,1-.15.27,2.07,2.07,0,0,1-.82.18,1.07,1.07,0,0,1-1.13-1.21V45.88c0-1.37-.69-2-2.1-2a5.29,5.29,0,0,0-2.25.61,7.91,7.91,0,0,1,.08,1v5a.22.22,0,0,1-.23.23h-.38a.22.22,0,0,1-.23-.23V45.71a2.59,2.59,0,0,0-.61-2,.2.2,0,0,1,0-.32l.29-.24a.23.23,0,0,1,.31,0,1.67,1.67,0,0,1,.61.76" transform="translate(0)"/><path class="cls-3" d="M63.54,43.9a5,5,0,0,1,2.59-.84c1.77,0,2.73.93,2.73,2.52v3.58A3,3,0,0,0,69,50a8.62,8.62,0,0,0,.93,0,.21.21,0,0,1,.23.23v.08a.29.29,0,0,1-.16.27,2,2,0,0,1-.82.18A1.07,1.07,0,0,1,68,49.62V45.88c0-1.37-.68-2-2.1-2a5.21,5.21,0,0,0-2.24.61,8.17,8.17,0,0,1,.07,1v5a.21.21,0,0,1-.22.23h-.38a.22.22,0,0,1-.23-.23V45.71a2.63,2.63,0,0,0-.61-2c-.1-.1-.1-.21,0-.32l.29-.24a.22.22,0,0,1,.3,0,1.67,1.67,0,0,1,.61.76" transform="translate(0)"/><path class="cls-3" d="M78.26,46.92c0,2.45-1.23,3.91-3.42,3.91s-3.4-1.55-3.4-4,1.22-3.77,3.4-3.77,3.42,1.57,3.42,3.86m-5.19-2.56a4.06,4.06,0,0,0-.75,2.54c0,1.69.7,3.1,2.59,3.1a3.47,3.47,0,0,0,1.72-.43A4,4,0,0,0,77.38,47c0-1.69-.7-3.09-2.58-3.09a3.13,3.13,0,0,0-1.73.46" transform="translate(0)"/><path class="cls-3" d="M82.9,50.68h-.44a.28.28,0,0,1-.28-.18l-2.68-7a.19.19,0,0,1,.15-.28l.4-.07a.22.22,0,0,1,.27.17l2.44,6.31,1.13-2.14A20.7,20.7,0,0,0,85,44.89a7.28,7.28,0,0,0-.16-1.45.21.21,0,0,1,.17-.27l.32-.06a.25.25,0,0,1,.29.1,1.67,1.67,0,0,1,.31.95,9.75,9.75,0,0,1-1.24,3.38l-1.54,3a.27.27,0,0,1-.27.17" transform="translate(0)"/><path class="cls-3" d="M93.28,50.83a1,1,0,0,1-1.08-.77,4.36,4.36,0,0,1-2.47.77c-1.42,0-2.38-.74-2.38-2,0-1.54,1.54-2.27,4.24-2.27h.55v-.69c0-1.35-.63-1.93-2-1.93a2.77,2.77,0,0,0-1.28.23c0,.27-.09.59-.11,1a.21.21,0,0,1-.23.23h-.32a.29.29,0,0,1-.27-.14,1,1,0,0,1-.12-.47c0-1,1.22-1.65,2.54-1.65A2.34,2.34,0,0,1,93,45.58v3.58a2.34,2.34,0,0,0,.13.87,8.12,8.12,0,0,0,.91,0,.21.21,0,0,1,.23.23v.08a.29.29,0,0,1-.15.27,2.11,2.11,0,0,1-.81.18M89.82,50a5.08,5.08,0,0,0,2.32-.63V47.21h-.58a6.56,6.56,0,0,0-3.07.61,1.71,1.71,0,0,0-.26.93c0,.85.67,1.25,1.59,1.25" transform="translate(0)"/><path class="cls-3" d="M98.39,50.83c-1.24,0-2.18-.65-2.18-2.4v-4.3H95.09a.22.22,0,0,1-.23-.23v-.17a.22.22,0,0,1,.22-.24l1.13-.12v-.16l.13-1.47a.28.28,0,0,1,.22-.25l.24,0c.15,0,.24,0,.24.19v1.73h2.73a.21.21,0,0,1,.23.22v.31a.22.22,0,0,1-.23.23H97v4.11c0,1.31.58,1.76,1.5,1.76a2.37,2.37,0,0,0,1.42-.46.22.22,0,0,1,.32.06l.12.17a.23.23,0,0,1,0,.32,2.86,2.86,0,0,1-2,.74" transform="translate(0)"/><path class="cls-3" d="M103.34,40.93a1.12,1.12,0,0,1-.21.68,1.17,1.17,0,0,1-.45.08c-.41,0-.65-.29-.65-.76a1.14,1.14,0,0,1,.09-.46.29.29,0,0,1,.24-.2l.43-.06a.34.34,0,0,1,.29.08,1,1,0,0,1,.26.64m-.24,8.23a2.9,2.9,0,0,0,.12.87,8.27,8.27,0,0,0,.93,0,.21.21,0,0,1,.23.23v.08a.28.28,0,0,1-.17.27,2,2,0,0,1-.81.18,1.08,1.08,0,0,1-1.14-1.21V43.44a.22.22,0,0,1,.23-.23h.38a.22.22,0,0,1,.23.23Z" transform="translate(0)"/><path class="cls-3" d="M112.52,46.92c0,2.45-1.24,3.91-3.43,3.91s-3.4-1.55-3.4-4,1.22-3.77,3.4-3.77,3.43,1.57,3.43,3.86m-5.2-2.56a4.06,4.06,0,0,0-.75,2.54c0,1.69.7,3.1,2.59,3.1a3.47,3.47,0,0,0,1.72-.43,4,4,0,0,0,.75-2.58c0-1.69-.7-3.09-2.57-3.09a3.18,3.18,0,0,0-1.74.46" transform="translate(0)"/><path class="cls-3" d="M115.73,43.9a5,5,0,0,1,2.59-.84c1.77,0,2.73.93,2.73,2.52v3.58a3,3,0,0,0,.11.87,8.62,8.62,0,0,0,.93,0,.21.21,0,0,1,.23.23v.08a.29.29,0,0,1-.16.27,2,2,0,0,1-.82.18,1.07,1.07,0,0,1-1.13-1.21V45.88c0-1.37-.68-2-2.1-2a5.21,5.21,0,0,0-2.24.61,8.17,8.17,0,0,1,.07,1v5a.21.21,0,0,1-.22.23h-.38a.22.22,0,0,1-.23-.23V45.71a2.63,2.63,0,0,0-.61-2,.2.2,0,0,1,0-.32l.29-.24a.22.22,0,0,1,.3,0,1.67,1.67,0,0,1,.61.76" transform="translate(0)"/><path class="cls-3" d="M130.27,43.58a3.66,3.66,0,0,1,2.29-.79,2.65,2.65,0,0,1,2.85,2.79v2.07a3.52,3.52,0,0,0,.09,1l.35,0a.51.51,0,0,1,.52.55V50a.67.67,0,0,1-.34.64,2.76,2.76,0,0,1-1.11.24c-1,0-1.65-.61-1.65-2V46.55c0-1.33-.48-1.8-1.56-1.8a4.21,4.21,0,0,0-1.44.26v5.14a.49.49,0,0,1-.53.53h-1.08a.49.49,0,0,1-.54-.53V40.09a.54.54,0,0,1,.49-.58l1.1-.15a.45.45,0,0,1,.56.5Z" transform="translate(0)"/><path class="cls-3" d="M140.12,47.07c0,1.33.49,1.8,1.52,1.8a3.9,3.9,0,0,0,1.42-.26V43.47a.49.49,0,0,1,.53-.53h1.07a.49.49,0,0,1,.54.53v4.18a3.52,3.52,0,0,0,.09,1l.35,0a.5.5,0,0,1,.52.54V50a.68.68,0,0,1-.34.64,2.8,2.8,0,0,1-1.11.24,1.41,1.41,0,0,1-1.48-.94,3.61,3.61,0,0,1-2.42.94A2.63,2.63,0,0,1,138,48.05V43.47a.49.49,0,0,1,.53-.53h1.09a.49.49,0,0,1,.53.53Z" transform="translate(0)"/><path class="cls-3" d="M149.91,43.53a3.4,3.4,0,0,1,2.17-.74c1.82,0,3.21,1.29,3.21,3.87s-1.36,4.17-4.24,4.17a7.33,7.33,0,0,1-2.93-.54.63.63,0,0,1-.36-.63V40.09a.53.53,0,0,1,.48-.58l1.1-.15a.46.46,0,0,1,.57.5Zm0,1.51v3.58a3.52,3.52,0,0,0,1.37.25,2.2,2.2,0,0,0,1.31-.34,2.79,2.79,0,0,0,.5-1.73c0-1.26-.61-2-1.78-2a3.81,3.81,0,0,0-1.4.29" transform="translate(0)"/><path class="cls-3" d="M6.32,3.23a4.13,4.13,0,0,1-1,2.89,5.94,5.94,0,0,1-2.24.39C1.09,6.51,0,5.37,0,3.18A5.44,5.44,0,0,1,.3,1.49,1.44,1.44,0,0,1,1.59.39L3.88,0A1.46,1.46,0,0,1,5.43.49a4.35,4.35,0,0,1,.89,2.74M5.53,28.17a9.86,9.86,0,0,0,.34,3c.6.1,1.3.15,2.09.2A1.13,1.13,0,0,1,9.21,32.6v1.24a1.45,1.45,0,0,1-.8,1.45A7.33,7.33,0,0,1,5.28,36C2.49,36,.8,34.24.8,30.81V11.94A1.12,1.12,0,0,1,2,10.7H4.28a1.13,1.13,0,0,1,1.25,1.24Z" transform="translate(0)"/><path class="cls-3" d="M19.21,13.23a13.78,13.78,0,0,1,8.42-3c5.47,0,9.11,3,9.11,8.61v9.36a11.28,11.28,0,0,0,.35,3,21,21,0,0,0,2.09.2,1.13,1.13,0,0,1,1.24,1.25v1.24a1.45,1.45,0,0,1-.8,1.45,7.16,7.16,0,0,1-3.13.69C33.7,36,32,34.24,32,30.81v-10c0-4.43-1.89-6.22-6-6.22a15.62,15.62,0,0,0-6.17,1.49A22.25,22.25,0,0,1,20,19V34.24a1.12,1.12,0,0,1-1.24,1.24H16.53a1.13,1.13,0,0,1-1.25-1.24V19.75a9.91,9.91,0,0,0-1.49-6A1.1,1.1,0,0,1,13.94,12l1.54-1.24a1.29,1.29,0,0,1,1.64-.2,5.48,5.48,0,0,1,2.09,2.63" transform="translate(0)"/><path class="cls-3" d="M50.43,13.23a13.73,13.73,0,0,1,8.41-3c5.47,0,9.11,3,9.11,8.61v9.36a11.28,11.28,0,0,0,.35,3,21,21,0,0,0,2.09.2,1.13,1.13,0,0,1,1.24,1.25v1.24a1.45,1.45,0,0,1-.79,1.45A7.24,7.24,0,0,1,67.7,36c-2.79,0-4.48-1.74-4.48-5.17v-10c0-4.43-1.89-6.22-6-6.22A15.62,15.62,0,0,0,51,16.12a22.25,22.25,0,0,1,.2,2.84V34.24A1.12,1.12,0,0,1,50,35.48H47.74a1.13,1.13,0,0,1-1.25-1.24V19.75c0-2.78-.49-4.53-1.49-6A1.1,1.1,0,0,1,45.15,12l1.54-1.24a1.31,1.31,0,0,1,1.65-.2,5.6,5.6,0,0,1,2.09,2.63" transform="translate(0)"/><path class="cls-3" d="M86,35.48h-3a1.44,1.44,0,0,1-1.44-1L74.12,12.44c-.25-.8,0-1.4.9-1.5l2.44-.34a1.28,1.28,0,0,1,1.49.94l6.22,18.72,2.44-5.43c1.3-2.89,2.19-5.08,3-7.46a24.3,24.3,0,0,0-.4-5.33,1.16,1.16,0,0,1,1-1.44l2-.35a1.45,1.45,0,0,1,1.59.64,5.51,5.51,0,0,1,.8,2.94,10.67,10.67,0,0,1-.25,2l5.07,14.34,2.14-5.38c1.2-2.94,2-5.08,2.89-7.46a24.3,24.3,0,0,0-.4-5.33,1.16,1.16,0,0,1,1-1.44l2-.35a1.44,1.44,0,0,1,1.59.64,5.51,5.51,0,0,1,.8,2.94c0,2.69-1.69,7-4.08,12.35l-3.79,8.36a1.43,1.43,0,0,1-1.44.94h-3a1.38,1.38,0,0,1-1.39-1L92.94,23c-.45,1-.9,2-1.45,3.14l-4.08,8.41a1.46,1.46,0,0,1-1.44.89" transform="translate(0)"/><path class="cls-3" d="M114.84,23.69c0-8.27,4.23-13.49,12.89-13.49a24.2,24.2,0,0,1,8.76,1.59,1.63,1.63,0,0,1,1,1.74V28.17a9.5,9.5,0,0,0,.35,3c.6.1,1.34.15,2.09.2a1.13,1.13,0,0,1,1.24,1.25v1.24a1.43,1.43,0,0,1-.79,1.44,7.07,7.07,0,0,1-3.14.7,3.92,3.92,0,0,1-4.08-2.78A11.67,11.67,0,0,1,125.39,36c-6.42,0-10.55-4.63-10.55-12.29m4.93-.45c0,5.28,2.59,8.26,7,8.26a12.52,12.52,0,0,0,6.07-1.64V15.62a14.63,14.63,0,0,0-5.52-1A9.89,9.89,0,0,0,121.86,16a11.85,11.85,0,0,0-2.09,7.27" transform="translate(0)"/><path class="cls-3" d="M152.47,3.23a4.09,4.09,0,0,1-1,2.89,5.91,5.91,0,0,1-2.24.39c-2,0-3.09-1.14-3.09-3.33a5.44,5.44,0,0,1,.3-1.69,1.44,1.44,0,0,1,1.29-1.1L150,0a1.46,1.46,0,0,1,1.55.45,4.29,4.29,0,0,1,.89,2.74m-.79,24.94a9.5,9.5,0,0,0,.35,3,21,21,0,0,0,2.09.2,1.13,1.13,0,0,1,1.24,1.25v1.24a1.45,1.45,0,0,1-.8,1.45,7.33,7.33,0,0,1-3.13.69c-2.79,0-4.48-1.74-4.48-5.17V11.94a1.12,1.12,0,0,1,1.24-1.24h2.24a1.13,1.13,0,0,1,1.25,1.24Z" transform="translate(0)"/></g></g></g></svg>