<svg xmlns="http://www.w3.org/2000/svg" width="100.219" height="97.872" viewBox="0 0 100.219 97.872">
  <metadata><?xpacket begin="﻿" id="W5M0MpCehiHzreSzNTczkc9d"?>
<x:xmpmeta xmlns:x="adobe:ns:meta/" x:xmptk="Adobe XMP Core 5.6-c140 79.160451, 2017/05/06-01:08:21        ">
   <rdf:RDF xmlns:rdf="http://www.w3.org/1999/02/22-rdf-syntax-ns#">
      <rdf:Description rdf:about=""/>
   </rdf:RDF>
</x:xmpmeta>
                                                                                                    
                                                                                                    
                                                                                                    
                                                                                                    
                                                                                                    
                                                                                                    
                                                                                                    
                                                                                                    
                                                                                                    
                                                                                                    
                                                                                                    
                                                                                                    
                                                                                                    
                                                                                                    
                                                                                                    
                                                                                                    
                                                                                                    
                                                                                                    
                                                                                                    
                                                                                                    
                           
<?xpacket end="w"?></metadata>
<defs>
    <style>
      .cls-1 {
        fill: #009cde;
        fill-rule: evenodd;
      }
    </style>
  </defs>
  <path id="Forma_6" data-name="Forma 6" class="cls-1" d="M224.805,1018.26a3.471,3.471,0,0,0-2.885,1.88,1.043,1.043,0,0,0-.032.82c0.321,0.84,1.156,1.85,3.313,1.85a11.267,11.267,0,0,0,2.085-.23,2.014,2.014,0,0,0,1.843-1.65,1.983,1.983,0,0,0-1.368-2.01A5.619,5.619,0,0,0,224.805,1018.26Zm0.4,2.44a2.832,2.832,0,0,1-.919-0.12,1.624,1.624,0,0,1,.7-0.22,3.229,3.229,0,0,1,1.37.24A7.276,7.276,0,0,1,225.2,1020.7Zm28.6-28.82a4.858,4.858,0,0,1,.757-0.341,2.906,2.906,0,0,0,2.368-3.057,3.532,3.532,0,0,1,.042-0.518,3.316,3.316,0,0,1,1.02-1.416,5.784,5.784,0,0,0,1.492-2.089,1.935,1.935,0,0,0,0-1.437,1.818,1.818,0,0,0-1.731-1.043,2.378,2.378,0,0,0-.656.092,4.751,4.751,0,0,0-.629.24,2.047,2.047,0,0,1-.439.16,1.408,1.408,0,0,1-.9-0.437c-0.122-.1-0.24-0.212-0.359-0.32a5.771,5.771,0,0,0-1.357-1,4.268,4.268,0,0,0-1.9-.4,12.031,12.031,0,0,0-1.524.126l-0.2.024a8.852,8.852,0,0,1-1.1.062,26.6,26.6,0,0,1-2.816-.208,28.9,28.9,0,0,0-3.118-.226,9.4,9.4,0,0,0-3.344.541,15.2,15.2,0,0,1-3.629.706,14.554,14.554,0,0,0-4.783,1.111,12.123,12.123,0,0,0-1.836,1.16c-0.286.205-.556,0.4-0.832,0.579a9.522,9.522,0,0,1-2.281,1.076c-0.581.184-2.126,0.674-2.177,2.13-0.043,1.208,1.032,2.105,2.613,2.183,0.186,0.009.382,0.014,0.585,0.014,0.581,0,1.154-.038,1.709-0.074s1.058-.068,1.57-0.068c0.274,0,.521.01,0.756,0.03a3.435,3.435,0,0,1,2.932,1.627,5.02,5.02,0,0,1,.251.944c0.044,0.218.09,0.444,0.151,0.677a11.973,11.973,0,0,0,1.223,2.74,8.866,8.866,0,0,0,1.664,2.329,3.951,3.951,0,0,0,2.612,1.094,3.1,3.1,0,0,0,.64-0.067,4.874,4.874,0,0,0,2.613-1.879,9.579,9.579,0,0,1,.695-0.749,5.713,5.713,0,0,1,2.788-1.269c0.414-.083.842-0.147,1.295-0.213a8.577,8.577,0,0,0,4.466-1.564,8.3,8.3,0,0,0,.657-0.631A4.172,4.172,0,0,1,253.8,991.88Zm-1.116-1.789a5.855,5.855,0,0,0-1.112.963c-0.172.177-.334,0.345-0.5,0.481a6.832,6.832,0,0,1-3.418,1.093c-0.46.068-.937,0.138-1.406,0.232a7.759,7.759,0,0,0-3.8,1.79,11.324,11.324,0,0,0-.854.913,3.241,3.241,0,0,1-1.456,1.2,1.7,1.7,0,0,1-1.386-.516,7.14,7.14,0,0,1-1.248-1.8,10.19,10.19,0,0,1-1.027-2.251c-0.046-.175-0.083-0.361-0.123-0.559a6.817,6.817,0,0,0-.381-1.359,5.348,5.348,0,0,0-4.694-2.9c-0.294-.024-0.6-0.037-0.933-0.037-0.58,0-1.153.038-1.707,0.073s-1.06.069-1.572,0.069c-0.171,0-.328,0-0.481-0.011a1.764,1.764,0,0,1-.326-0.046c0.106-.044.244-0.1,0.424-0.152a11.591,11.591,0,0,0,2.789-1.315c0.321-.207.625-0.427,0.92-0.639a10.379,10.379,0,0,1,1.517-.97,12.781,12.781,0,0,1,4.107-.916,17.039,17.039,0,0,0,4.132-.827,7.252,7.252,0,0,1,2.6-.406,27.3,27.3,0,0,1,2.89.213,28.653,28.653,0,0,0,3.044.221,11.043,11.043,0,0,0,1.355-.078l0.2-.025a10.355,10.355,0,0,1,1.26-.109,2.188,2.188,0,0,1,.978.183,4.047,4.047,0,0,1,.858.664c0.14,0.127.279,0.254,0.422,0.375a3.278,3.278,0,0,0,2.557.915,3.363,3.363,0,0,0,.866-0.263,8.235,8.235,0,0,1-.7.774,4.992,4.992,0,0,0-1.583,2.476,5.32,5.32,0,0,0-.082.861,1.955,1.955,0,0,1-.079.633,1.991,1.991,0,0,1-.945.533A6.466,6.466,0,0,0,252.68,990.091Zm4.311,7.273a4.443,4.443,0,0,0,2.811-1.033,1.9,1.9,0,0,0,.783-1.631,1.847,1.847,0,0,0-1.047-1.477,6.374,6.374,0,0,0-6.123-.109,1.053,1.053,0,0,0-.553,1.092c0.186,1.227.957,2.764,3.571,3.12A3.993,3.993,0,0,0,256.991,997.364Zm1.2-2.466a2.232,2.232,0,0,1-1.472.339,2.285,2.285,0,0,1-1.449-.6A4.306,4.306,0,0,1,258.19,994.9ZM245.4,1033.39a6.623,6.623,0,0,0-2.982-.83c-1.23-.11-2.472-0.16-3.711-0.15a4.2,4.2,0,0,0-.581-2.85,5.358,5.358,0,0,0-3.21-2.33,5.262,5.262,0,0,0-.629-0.13,3.361,3.361,0,0,1-.858-0.23,3.286,3.286,0,0,1-.742-0.67c-0.09-.1-0.179-0.19-0.271-0.29a8.627,8.627,0,0,0-9.54-1.71,3.776,3.776,0,0,0-2.427-1.2l-0.2-.03a2.9,2.9,0,0,0-1.738-1.78,3.607,3.607,0,0,0-1.5-.01,0.487,0.487,0,0,1-.124.02c0.01-.03.02-0.06,0.029-0.08l0.044-.13a1.882,1.882,0,0,0-.944-2.52,2,2,0,0,0-1.94.52,1.459,1.459,0,0,1-.14.11,1.135,1.135,0,0,1-.867.16,1.347,1.347,0,0,1-.842-0.5,1.841,1.841,0,0,1,.089-2.09,2.64,2.64,0,0,1,2.256-.95,4.164,4.164,0,0,1,2.543,1.18c0.067,0.06.133,0.12,0.2,0.19a4.1,4.1,0,0,0,1.4.99,2.226,2.226,0,0,0,1.788-.1,1.733,1.733,0,0,0,.923-1.12,2.259,2.259,0,0,0-.137-1.41c-0.037-.1-0.077-0.2-0.118-0.3a2.286,2.286,0,0,1-.286-1.28,1.862,1.862,0,0,1,.869-0.5,5.478,5.478,0,0,0,1.324-.72,4.788,4.788,0,0,0,1.354-2.14,5.619,5.619,0,0,1,.47-1,3.594,3.594,0,0,1,1.988-1.26,13.015,13.015,0,0,1,1.624-.36c0.456-.09.927-0.17,1.4-0.29a2.2,2.2,0,0,0,1.254-.73,1.672,1.672,0,0,0,.318-1.39A2.284,2.284,0,0,0,230.4,1004l0.806-.34a2.506,2.506,0,0,0,.158.34,2.757,2.757,0,0,0,1.794,1.4,4.482,4.482,0,0,0,1.557-.01,2.149,2.149,0,0,0,1.106-.43,2.105,2.105,0,0,0,.553-2.01,5.209,5.209,0,0,0-.879-2.48,5.279,5.279,0,0,0-1.436-1.186l-2.336-1.474a5.816,5.816,0,0,0-3.118-1.193,5.344,5.344,0,0,1-.713-0.112,5.258,5.258,0,0,1-1.088-.492c-0.167-.09-0.336-0.182-0.513-0.27l2.757,0.68a2.483,2.483,0,0,0,2-.176,1.8,1.8,0,0,0,.805-1.351,2.34,2.34,0,0,0-.656-1.849,4.273,4.273,0,0,0-1.68-.936c-0.1-.035-0.194-0.07-0.289-0.106a13.366,13.366,0,0,1-2.143-1.148,10.711,10.711,0,0,0-6.219-1.99c-0.842-.065-2.126-0.175-3.367-0.282s-2.533-.217-3.385-0.283a1.054,1.054,0,1,0-.163,2.1c0.843,0.065,2.126.175,3.368,0.282s2.533,0.218,3.384.283a12.262,12.262,0,0,1,2.931.464,12.058,12.058,0,0,1,2.347,1.221,15.243,15.243,0,0,0,2.49,1.319c0.109,0.042.221,0.082,0.332,0.122a5.5,5.5,0,0,1,.624.251l-2.9-.714a5.086,5.086,0,0,1-1.725-.643,4.925,4.925,0,0,1-.427-0.366,4.327,4.327,0,0,0-1.23-.872,3.205,3.205,0,0,0-3,.35,5.392,5.392,0,0,0-1.706,1.932l-0.044.078a2.071,2.071,0,0,1-.266.4,0.812,0.812,0,0,1-.27.047,9.019,9.019,0,0,1-1.265-.02,8.715,8.715,0,0,0-1.99.035c-1.571.256-3.079,1.529-2.885,3.217a3.057,3.057,0,0,0,2.159,2.428,7.777,7.777,0,0,0,1.706.35c0.238,0.03.462,0.06,0.677,0.09a6.21,6.21,0,0,1,2.826,1.29l0.085,0.07a3.033,3.033,0,0,0,1.019.61,2.225,2.225,0,0,0,1.744-.16,3.2,3.2,0,0,0,1.5-1.89,7.142,7.142,0,0,0,.218-1.692,6.918,6.918,0,0,1,.088-0.992,0.932,0.932,0,0,1,.164-0.437,1.165,1.165,0,0,1,1.094.018,8.151,8.151,0,0,1,.785.39,6.98,6.98,0,0,0,1.557.678,7.117,7.117,0,0,0,1.012.167,5.763,5.763,0,0,1,.682.1,5.685,5.685,0,0,1,1.546.778l2.335,1.477a3.514,3.514,0,0,1,.892.69,3.585,3.585,0,0,1,.466,1.52c0,0.01,0,.03.006,0.04a2.3,2.3,0,0,1-.684.02,0.7,0.7,0,0,1-.393-0.34,0.646,0.646,0,0,1-.068-0.51,1.056,1.056,0,0,0-1.4-1.35l-3.648,1.54a1.449,1.449,0,0,0-1,1.72,1.419,1.419,0,0,0,.779.9,5.044,5.044,0,0,0,.9.33l0.121,0.03c-0.253.06-.513,0.11-0.781,0.16a16.155,16.155,0,0,0-1.839.41,5.427,5.427,0,0,0-3.147,2.11,7.37,7.37,0,0,0-.674,1.4,3.085,3.085,0,0,1-.714,1.27,3.547,3.547,0,0,1-.807.41,3.345,3.345,0,0,0-1.943,1.49,3.563,3.563,0,0,0,.2,3.01l0.022,0.06c-0.139-.11-0.289-0.25-0.444-0.4-0.078-.08-0.155-0.15-0.233-0.23a6.3,6.3,0,0,0-3.861-1.74,4.767,4.767,0,0,0-4.067,1.8,3.941,3.941,0,0,0-.095,4.61,3.493,3.493,0,0,0,2.154,1.31,3.255,3.255,0,0,0,2.052-.26,1.9,1.9,0,0,0,.235,1.47,2.158,2.158,0,0,0,2.353.73,2.39,2.39,0,0,1,.611-0.05,2.565,2.565,0,0,1,.5.86l0.015,0.04a1.913,1.913,0,0,0,1.641.96c0.9,0.16,1.176.28,1.307,0.82a0.038,0.038,0,0,0,0,.01,1.106,1.106,0,0,0,.051.15l0.013,0.03a1.169,1.169,0,0,0,.069.13,0.034,0.034,0,0,1,.011.02,0.72,0.72,0,0,0,.091.11l0.023,0.03c0.035,0.03.072,0.07,0.111,0.1,0,0,.011.01,0.016,0.01,0.043,0.03.087,0.06,0.133,0.09h0l0.144,0.06a0.027,0.027,0,0,0,.025.01,0.743,0.743,0,0,0,.145.04h0.029a0.833,0.833,0,0,0,.156.02h0.018c0.033,0,.066-0.01.1-0.01h0.028c0.031-.01.063-0.01,0.094-0.02h0.014s0.009-.01.013-0.01a0.18,0.18,0,0,0,.07-0.02c0.012,0,.024-0.01.035-0.01a0.13,0.13,0,0,1,.057-0.02,0.09,0.09,0,0,1,.045-0.02l0.043-.03,0.053-.03a0.015,0.015,0,0,0,.016-0.01,6.508,6.508,0,0,1,7.9.85c0.079,0.09.157,0.17,0.235,0.25a4.77,4.77,0,0,0,1.308,1.1,4.668,4.668,0,0,0,1.461.44c0.177,0.03.343,0.06,0.494,0.1a3.218,3.218,0,0,1,1.934,1.41c0.4,0.63.465,1.65-.04,1.97a1.048,1.048,0,0,0-.437,1.21,1.059,1.059,0,0,0,1.071.73,34.624,34.624,0,0,1,5.292.07,4.833,4.833,0,0,1,2.056.52,1.133,1.133,0,0,1,.612,1.07,2.393,2.393,0,0,1-.627.86,5.815,5.815,0,0,0-.853,1.1,5.618,5.618,0,0,0-.569,2.56,3.613,3.613,0,0,1-.334,1.69,3.571,3.571,0,0,1-1.592,1.03,7.752,7.752,0,0,0-1.834,1.03,7.386,7.386,0,0,0-1.925,3.04c-0.075.18-.149,0.36-0.226,0.54a3.07,3.07,0,0,1-1.738,1.99c-0.155.03-.353,0.04-0.562,0.06a3.313,3.313,0,0,0-1.775.49,3.423,3.423,0,0,0-.783.81c-0.071.1-.138,0.19-0.2,0.26a4.128,4.128,0,0,1-1.353.8,6.2,6.2,0,0,0-1.944,1.19,6.086,6.086,0,0,0-1.4,2.98c-0.064.24-.124,0.48-0.191,0.7-0.132.44-.3,0.88-0.486,1.35a12.446,12.446,0,0,0-.764,2.43,6.877,6.877,0,0,0-.1,1.42,10.524,10.524,0,0,1-1.652-2.21,3.241,3.241,0,0,1-.276-2.61,5.721,5.721,0,0,1,.369-0.7,5.7,5.7,0,0,0,.629-1.34,5.768,5.768,0,0,0,.123-2.03c-0.017-.27-0.033-0.53-0.028-0.76a8.9,8.9,0,0,1,1.3-3.71,16.009,16.009,0,0,0,1.283-2.95,3.641,3.641,0,0,0-.477-3.45,4.21,4.21,0,0,0-1.915-1.14,2.391,2.391,0,0,1-1.024-.52,2.428,2.428,0,0,1-.2-1.26,8.759,8.759,0,0,0-.051-1.01,7.874,7.874,0,0,0-2.035-3.86,9.036,9.036,0,0,1-1.445-2.17,1.676,1.676,0,0,1-.14-1,2.91,2.91,0,0,1,.554-0.9c0.645-.84,2.358-3.05.585-4.86,0,0,0,0,0-.01a1.028,1.028,0,0,0-.152-0.12,0.012,0.012,0,0,0-.013-0.01,0.6,0.6,0,0,0-.166-0.09c-0.006,0-.011-0.01-0.017-0.01a1.1,1.1,0,0,0-.179-0.05,0.014,0.014,0,0,0-.015-0.01,1.2,1.2,0,0,0-.19-0.02h-0.009a1.251,1.251,0,0,0-.192.02h-0.01a1.146,1.146,0,0,0-.18.05,0.02,0.02,0,0,0-.02.01,0.506,0.506,0,0,0-.109.05,1.235,1.235,0,0,1-1.339-.15,3.081,3.081,0,0,1-.368-0.39,4.256,4.256,0,0,0-.854-0.82,4.342,4.342,0,0,0-1.7-.62,2.5,2.5,0,0,1-.931-0.29,2.451,2.451,0,0,1-.47-0.52,3.789,3.789,0,0,0-1.205-1.11,3.66,3.66,0,0,0-1.695-.34c-0.111,0-.223-0.01-0.333-0.01a3.791,3.791,0,0,1-2.755-1.52,8.778,8.778,0,0,1-.591-0.99,7.773,7.773,0,0,0-1.056-1.62,8.565,8.565,0,0,0-2.787-1.86,4.85,4.85,0,0,1-2.321-1.68,1.055,1.055,0,0,0-1.848,1.02,6.679,6.679,0,0,0,3.248,2.56,6.926,6.926,0,0,1,2.133,1.36,6.373,6.373,0,0,1,.774,1.22,9.579,9.579,0,0,0,.743,1.23,5.875,5.875,0,0,0,4.322,2.38c0.135,0.01.272,0.01,0.41,0.02a2.308,2.308,0,0,1,.784.1,2.1,2.1,0,0,1,.512.54,4.274,4.274,0,0,0,.916.94,4.211,4.211,0,0,0,1.733.64,2.966,2.966,0,0,1,.926.29,2.421,2.421,0,0,1,.44.45,4.731,4.731,0,0,0,.6.62,3.316,3.316,0,0,0,2.164.79,3.42,3.42,0,0,0,.452-0.03,4.262,4.262,0,0,1-.9,1.55,4.632,4.632,0,0,0-.925,1.66,3.657,3.657,0,0,0,.221,2.31,10.79,10.79,0,0,0,1.761,2.71,6.2,6.2,0,0,1,1.585,2.8,7,7,0,0,1,.035.77,3.994,3.994,0,0,0,.634,2.52,4.055,4.055,0,0,0,1.988,1.23,2.529,2.529,0,0,1,1.022.52,1.749,1.749,0,0,1,.053,1.5,14.281,14.281,0,0,1-1.129,2.57,10.542,10.542,0,0,0-1.531,4.62c-0.008.33,0.012,0.64,0.032,0.94a2.676,2.676,0,0,1-.468,2.17,7.848,7.848,0,0,0-.506.98,5.32,5.32,0,0,0,.349,4.34c0.031,0.07.066,0.13,0.1,0.19a45.616,45.616,0,0,1-21.235-35.13,1.056,1.056,0,0,0-2.106.16,47.71,47.71,0,0,0,43.963,43.93,1.058,1.058,0,0,0,.159-2.11,44.885,44.885,0,0,1-14.6-3.6,4.861,4.861,0,0,1-.569-3.23,10.956,10.956,0,0,1,.65-2.02c0.19-.49.386-0.99,0.544-1.51,0.079-.27.147-0.53,0.213-0.79a2.9,2.9,0,0,1,2.162-2.76,5.858,5.858,0,0,0,2.072-1.33c0.119-.14.221-0.27,0.31-0.39a1.869,1.869,0,0,1,.293-0.34,1.78,1.78,0,0,1,.723-0.13,5.943,5.943,0,0,0,.878-0.11c1.335-.3,2.415-1.37,3.211-3.2,0.081-.19.16-0.38,0.239-0.57a5.55,5.55,0,0,1,1.322-2.22,5.646,5.646,0,0,1,1.344-.73,5.2,5.2,0,0,0,2.51-1.82,5.275,5.275,0,0,0,.668-2.71,2.587,2.587,0,0,1,.863-2.34,4.145,4.145,0,0,0,1.129-1.8A3.205,3.205,0,0,0,245.4,1033.39Zm-23.048-37.335a2.931,2.931,0,0,0-.662,1.442,8.7,8.7,0,0,0-.124,1.3,5.31,5.31,0,0,1-.137,1.194,1.075,1.075,0,0,1-.46.609,0.139,0.139,0,0,1-.1.03,1.7,1.7,0,0,1-.345-0.25l-0.1-.08a8.394,8.394,0,0,0-3.785-1.713c-0.267-.047-0.529-0.08-0.781-0.111a6.223,6.223,0,0,1-1.264-.241,1.092,1.092,0,0,1-.766-0.683,1.248,1.248,0,0,1,1.128-.9,4.207,4.207,0,0,1,.665-0.047c0.275,0,.562.018,0.858,0.036a10.83,10.83,0,0,0,1.565.017,2.646,2.646,0,0,0,1.191-.345,2.969,2.969,0,0,0,1.006-1.162l0.041-.072a3.42,3.42,0,0,1,1.028-1.216,1.163,1.163,0,0,1,1.015-.176,2.64,2.64,0,0,1,.63.485,7.082,7.082,0,0,0,.614.519,4.69,4.69,0,0,0,.987.538A2.688,2.688,0,0,0,222.349,996.055Zm44.365,33.085a11.509,11.509,0,0,1,3.424-.88,2.6,2.6,0,0,1,1.49.32,0.9,0.9,0,0,1,.426.81,2.483,2.483,0,0,1-.335.64,3.485,3.485,0,0,0-.658,1.6,3.7,3.7,0,0,0,1.022,2.55c1.242,1.62,1.7,2.96,1.366,3.99a5.573,5.573,0,0,1-.3.68,5.036,5.036,0,0,0-.546,1.55,4.977,4.977,0,0,0,.951,3.21,7.2,7.2,0,0,1,.641,1.3,6.655,6.655,0,0,1,.117,2.27,6.232,6.232,0,0,0,.646,3.87,4.5,4.5,0,0,0,3.867,1.93,5.112,5.112,0,0,0,.865-0.07,11.687,11.687,0,0,0,4.177-1.77,1.053,1.053,0,1,0-1.077-1.81,10.009,10.009,0,0,1-3.419,1.5,2.706,2.706,0,0,1-2.634-.91,4.527,4.527,0,0,1-.318-2.63,6.55,6.55,0,0,0-1.039-4.73,3.35,3.35,0,0,1-.686-1.87,3.4,3.4,0,0,1,.352-0.92,7.309,7.309,0,0,0,.406-0.95c0.572-1.75.016-3.69-1.7-5.93a2.286,2.286,0,0,1-.595-1.07,2.063,2.063,0,0,1,.333-0.66,4.089,4.089,0,0,0,.618-1.31,2.961,2.961,0,0,0-1.3-3.01,4.489,4.489,0,0,0-2.757-.69,13.391,13.391,0,0,0-4.069,1,11.225,11.225,0,0,1-3.474.88,5.019,5.019,0,0,1-5.111-5.61c0.252-2.1,1.849-3.99,3.131-5.51a9.884,9.884,0,0,1,3.445-3.01,9.692,9.692,0,0,1,2.132-.5,13.166,13.166,0,0,0,2.067-.43c0.408-.12.8-0.28,1.182-0.43a4.081,4.081,0,0,1,2.407-.5,4.438,4.438,0,0,1,1.619,1.23,4.789,4.789,0,0,0,3.211,1.81,4.85,4.85,0,0,0,1.5-.26,3.794,3.794,0,0,1,.716-0.17,4.423,4.423,0,0,1,1.455.21,6.165,6.165,0,0,0,2.195.27,6.473,6.473,0,0,0,.881-0.18,5.131,5.131,0,0,1,.569-0.12,4.387,4.387,0,0,1,1.3.13,9.36,9.36,0,0,0,1.355.18,14.827,14.827,0,0,0,4.59-1.16,45.3,45.3,0,0,1,.752,5.47,1.058,1.058,0,0,0,1.051.98h0a1.063,1.063,0,0,0,1.054-1.14,47.309,47.309,0,0,0-13.839-30.1c-0.337-.337-0.68-0.666-1.026-0.992a1.043,1.043,0,0,0-.352-0.329,47.335,47.335,0,0,0-28.743-12.511,1.058,1.058,0,0,0-1.134,1.054h0a1.054,1.054,0,0,0,.974,1.051,45.436,45.436,0,0,1,26.454,11.071c-0.917.446-2.037,1-3.137,1.544-1.812.9-3.687,1.823-4.566,2.227a3.54,3.54,0,0,0-1.456,1.041,2.4,2.4,0,0,0,.866,3.524,3.516,3.516,0,0,0,1.545.275,1.694,1.694,0,0,1,1.542.68c0.1,0.087.2,0.174,0.305,0.257a3.383,3.383,0,0,0,2.143.894,2.316,2.316,0,0,0,.664-0.1,3.42,3.42,0,0,0,2-2.382c0.044-.114.087-0.227,0.132-0.336,0.328-.8,2.52-2.843,3.877-3.782,0.352,0.389.7,0.783,1.037,1.184-0.191.114-.383,0.232-0.563,0.352-0.561.375-1.874,1.251-1.431,2.418a2.162,2.162,0,0,0,.821.97l0.1,0.075a1.981,1.981,0,0,1-.468.624,9.159,9.159,0,0,1-2.948,2.084,3.321,3.321,0,0,1-2.95-.164c-0.066-.044-0.13-0.091-0.195-0.138a2.744,2.744,0,0,0-3.982.432,2.317,2.317,0,0,1-1.083.63,2.13,2.13,0,0,1-.669-0.879c-0.1-.174-0.2-0.354-0.312-0.531a5.171,5.171,0,0,0-2.2-1.913,3.025,3.025,0,0,0-1.931-.269,2.057,2.057,0,0,0-1.651,1.861c0,0.029,0,.057,0,0.083-0.132.062-.291,0.118-0.456,0.176a6.4,6.4,0,0,0-.737.3,2.287,2.287,0,0,0-1.4,2.184,2.212,2.212,0,0,0,1.92,1.89,4.4,4.4,0,0,0,1.692-.14l0.17-.03a6.331,6.331,0,0,1,1.484-.16,1.994,1.994,0,0,0,.574,2.19,7.137,7.137,0,0,1-1.177.06,8.779,8.779,0,0,0-1.6.09,3.772,3.772,0,0,0-2.537,1.63,2.857,2.857,0,0,0,.168,3.33,3.1,3.1,0,0,0,1.25.85,4.085,4.085,0,0,0,1.468.27,4.156,4.156,0,0,0,1.865-.44,7.1,7.1,0,0,0,2.021-1.75c0.27-.3.525-0.59,0.793-0.84a4.533,4.533,0,0,1,7.178,1.52,1.582,1.582,0,0,0,1,.97,1.488,1.488,0,0,0,1.488-.48,2.953,2.953,0,0,0,.725-1.46,6.962,6.962,0,0,1,.639.96,1.416,1.416,0,0,0,2.409.48l0.3-.32a4.522,4.522,0,0,0,2.418,1.21,9.874,9.874,0,0,0,3.586-.19c0.386-.06,1.266-0.22,2.146-0.37,0.423-.07.846-0.14,1.216-0.21q0.129,0.48.249,0.96a13.438,13.438,0,0,1-4.03,1.15H286.63a8.247,8.247,0,0,1-1.019-.14,4.86,4.86,0,0,0-2.79.02,5.46,5.46,0,0,1-.582.12,4.42,4.42,0,0,1-1.455-.21,6.168,6.168,0,0,0-2.195-.27,7.3,7.3,0,0,0-1.079.24,3.282,3.282,0,0,1-.86.18,3.128,3.128,0,0,1-1.767-1.19,6.007,6.007,0,0,0-2.534-1.77,5.735,5.735,0,0,0-3.77.57c-0.358.14-.7,0.28-1.025,0.38a12.872,12.872,0,0,1-1.764.36,11.356,11.356,0,0,0-2.6.62,11.677,11.677,0,0,0-4.264,3.61c-1.464,1.73-3.285,3.89-3.613,6.62a7.129,7.129,0,0,0,7.26,7.97A13.234,13.234,0,0,0,266.714,1029.14Zm7.726-33.774c-0.05.122-.1,0.249-0.148,0.376a2.279,2.279,0,0,1-.642,1.122,1.281,1.281,0,0,1-.861-0.408c-0.09-.074-0.178-0.15-0.268-0.227a4.418,4.418,0,0,0-1.8-1.082,4.5,4.5,0,0,0-1.09-.108,1.96,1.96,0,0,1-.657-0.067,0.332,0.332,0,0,1-.088-0.36,2.037,2.037,0,0,1,.649-0.388c0.906-.417,2.794-1.35,4.62-2.253,1.426-.705,2.889-1.428,3.877-1.9q0.4,0.381.783,0.772C277.219,992,274.968,994.077,274.44,995.366Zm-9.48,12.884a5.327,5.327,0,0,1-1.4,1.27,2.026,2.026,0,0,1-1.618.08,1.029,1.029,0,0,1-.4-0.25,0.782,0.782,0,0,1,.015-0.84,1.664,1.664,0,0,1,1.129-.67,4.71,4.71,0,0,1,.942-0.06h0.26a8.77,8.77,0,0,0,1.59-.1C265.3,1007.87,265.128,1008.06,264.96,1008.25Zm-0.6-6.94a8.783,8.783,0,0,0-1.769.2l-0.184.04a2.677,2.677,0,0,1-.918.11,0.067,0.067,0,0,1-.043-0.01,0.931,0.931,0,0,1,.146-0.09,3.741,3.741,0,0,1,.5-0.19,6.207,6.207,0,0,0,.959-0.42,1.76,1.76,0,0,0,.858-1.06,1.813,1.813,0,0,0,.05-0.575h0a1.082,1.082,0,0,1,.6.131,3.027,3.027,0,0,1,1.3,1.124c0.082,0.13.166,0.28,0.253,0.44,0.134,0.23.284,0.5,0.468,0.76A5.187,5.187,0,0,0,264.355,1001.31Zm24.51,7.74c-0.885.16-1.771,0.31-2.159,0.38a8.388,8.388,0,0,1-2.842.19,2.133,2.133,0,0,1-1.648-1.17,1.058,1.058,0,0,0-.774-0.69,1.073,1.073,0,0,0-.99.31l-0.6.64a9.406,9.406,0,0,0-3.119-2.97,1.063,1.063,0,0,0-1.224.12,1.046,1.046,0,0,0-.286,1.19,8.8,8.8,0,0,1,.37,1.03,6.613,6.613,0,0,0-8.182-1.84,2.151,2.151,0,0,0-.727-2.01,1.511,1.511,0,0,0,.845-1.3,1.032,1.032,0,0,0-.034-0.28,2.4,2.4,0,0,0,.626.25,3.381,3.381,0,0,0,2.884-1.03,2.16,2.16,0,0,1,1.058-.61,1.623,1.623,0,0,1,.373.23c0.088,0.07.176,0.13,0.266,0.19a5.409,5.409,0,0,0,4.862.38,10.984,10.984,0,0,0,3.673-2.538c1.149-1.111,1.447-2.382.779-3.318a2.149,2.149,0,0,0-.337-0.366,10.55,10.55,0,0,1,.97-0.609,45.5,45.5,0,0,1,7.187,13.661C289.527,1008.94,289.2,1009,288.865,1009.05Zm6.6,28.17a1.062,1.062,0,0,0-1.322.69,49.9,49.9,0,0,1-33.109,32.83,1.052,1.052,0,0,0,.307,2.06,1.091,1.091,0,0,0,.308-0.04,52.158,52.158,0,0,0,34.507-34.22A1.058,1.058,0,0,0,295.468,1037.22Zm-70.807-59.367a1.036,1.036,0,0,0,.429-0.092c0.614-.273,1.247-0.53,1.882-0.764a1.055,1.055,0,1,0-.729-1.979c-0.68.25-1.357,0.525-2.013,0.818A1.054,1.054,0,0,0,224.661,977.853Zm-4.789,2.854a1.054,1.054,0,1,0-1.125-1.783,52.11,52.11,0,0,0-22.714,31.066,1.049,1.049,0,0,0,.759,1.28,1.186,1.186,0,0,0,.263.03,1.048,1.048,0,0,0,1.021-.79A49.763,49.763,0,0,1,219.872,980.707Z" transform="translate(-196 -974.938)"/>
</svg>
